<svg width="19" height="23" viewBox="0 0 19 23" fill="none" xmlns="http://www.w3.org/2000/svg">
<path d="M15.437 12.5044C15.4477 11.6698 15.6694 10.8514 16.0814 10.1254C16.4935 9.39948 17.0824 8.78954 17.7935 8.35237C17.3418 7.70721 16.7458 7.17627 16.053 6.80172C15.3602 6.42717 14.5896 6.21932 13.8024 6.19469C12.1231 6.01843 10.4952 7.19952 9.63946 7.19952C8.76719 7.19952 7.44969 6.21219 6.03096 6.24138C5.11329 6.27103 4.21894 6.53788 3.43506 7.01594C2.65118 7.494 2.00451 8.16696 1.55804 8.96925C-0.375959 12.3177 1.06663 17.2387 2.91924 19.9453C3.84614 21.2707 4.92942 22.7511 6.34687 22.6986C7.73393 22.6411 8.25197 21.8141 9.92627 21.8141C11.585 21.8141 12.0711 22.6986 13.5173 22.6653C15.0057 22.6411 15.9434 21.334 16.8378 19.9961C17.5038 19.0518 18.0162 18.008 18.3562 16.9036C17.4915 16.5379 16.7536 15.9257 16.2345 15.1434C15.7153 14.3611 15.438 13.4433 15.437 12.5044Z" fill="white"/>
<path d="M12.7053 4.41445C13.5168 3.44024 13.9166 2.18806 13.8198 0.923828C12.58 1.05405 11.4347 1.64661 10.6122 2.58344C10.2101 3.0411 9.9021 3.57354 9.70585 4.15031C9.50961 4.72708 9.42896 5.33687 9.46853 5.94483C10.0887 5.95121 10.7022 5.8168 11.2628 5.55171C11.8235 5.28663 12.3167 4.89777 12.7053 4.41445Z" fill="white"/>
</svg>
