<svg width="121" height="40" viewBox="0 0 121 40" fill="none" xmlns="http://www.w3.org/2000/svg">
<path d="M110.801 7.92969e-06H10.2012C9.83448 7.92969e-06 9.47218 7.92975e-06 9.10645 0.00200793C8.8003 0.00400793 8.49659 0.00981793 8.1875 0.0147079C7.51602 0.0226097 6.84611 0.0816842 6.1836 0.191418C5.52203 0.303541 4.88118 0.514924 4.28272 0.818418C3.685 1.12448 3.13885 1.52218 2.66407 1.99708C2.18681 2.47064 1.78897 3.01802 1.48585 3.61817C1.1819 4.21712 0.971144 4.85895 0.860854 5.52149C0.749515 6.18319 0.689602 6.85253 0.681654 7.52349C0.672374 7.83009 0.671394 8.13771 0.666504 8.44435V31.5586C0.671394 31.8691 0.672374 32.1699 0.681654 32.4805C0.689605 33.1514 0.749517 33.8207 0.860854 34.4824C0.97084 35.1453 1.18161 35.7875 1.48585 36.3867C1.78883 36.9849 2.18672 37.5301 2.66407 38.001C3.13705 38.478 3.68356 38.876 4.28272 39.1797C4.88117 39.484 5.52195 39.6967 6.1836 39.8105C6.84622 39.9194 7.51606 39.9785 8.1875 39.9873C8.49659 39.9941 8.8003 39.998 9.10645 39.998C9.47217 40 9.8345 40 10.2012 40H110.801C111.161 40 111.526 40 111.885 39.998C112.19 39.998 112.502 39.9941 112.807 39.9873C113.477 39.9789 114.146 39.9198 114.807 39.8105C115.471 39.6959 116.114 39.4833 116.715 39.1797C117.314 38.8758 117.86 38.4779 118.333 38.001C118.809 37.5282 119.207 36.9835 119.514 36.3867C119.816 35.7871 120.025 35.145 120.133 34.4824C120.245 33.8206 120.307 33.1515 120.319 32.4805C120.323 32.1699 120.323 31.8691 120.323 31.5586C120.331 31.1953 120.331 30.834 120.331 30.4648V9.53614C120.331 9.16993 120.331 8.80665 120.323 8.44435C120.323 8.13771 120.323 7.83009 120.319 7.52345C120.307 6.85243 120.245 6.18324 120.133 5.52145C120.025 4.85929 119.816 4.21751 119.514 3.61813C118.897 2.4152 117.918 1.43603 116.715 0.818328C116.114 0.515575 115.471 0.304248 114.807 0.191328C114.146 0.0811107 113.477 0.0220157 112.807 0.0145679C112.502 0.00968793 112.19 0.00382793 111.885 0.00187793C111.526 -0.00012207 111.161 -0.00012207 110.801 -0.00012207V7.92969e-06Z" fill="#A6A6A6"/>
<path d="M9.11137 39.125C8.80669 39.125 8.50937 39.1211 8.20708 39.1143C7.58086 39.1061 6.95611 39.0516 6.33794 38.9512C5.76153 38.8519 5.20315 38.6673 4.6812 38.4033C4.16404 38.1415 3.69235 37.7983 3.2842 37.3867C2.87014 36.98 2.52542 36.5082 2.26369 35.9902C1.99908 35.4688 1.81595 34.9099 1.72069 34.333C1.61782 33.7131 1.56216 33.0863 1.55419 32.458C1.54785 32.2471 1.53955 31.5449 1.53955 31.5449V8.44434C1.53955 8.44434 1.54839 7.75293 1.55424 7.5498C1.56187 6.92248 1.6172 6.29665 1.71977 5.67773C1.81521 5.09925 1.99848 4.53875 2.26323 4.01563C2.524 3.49794 2.86681 3.02586 3.27837 2.61768C3.68947 2.20562 4.16267 1.8606 4.68071 1.59521C5.20146 1.33209 5.75879 1.14873 6.33403 1.05127C6.95423 0.949836 7.58115 0.894996 8.20954 0.88721L9.11186 0.875H111.88L112.794 0.8877C113.416 0.895099 114.037 0.94945 114.652 1.05029C115.233 1.14898 115.796 1.33362 116.323 1.59814C117.361 2.13299 118.205 2.97916 118.738 4.01807C118.998 4.53758 119.179 5.09351 119.273 5.66699C119.377 6.29099 119.435 6.92174 119.447 7.5542C119.45 7.8374 119.45 8.1416 119.45 8.44434C119.458 8.81934 119.458 9.17627 119.458 9.53613V30.4648C119.458 30.8281 119.458 31.1826 119.45 31.54C119.45 31.8652 119.45 32.1631 119.446 32.4697C119.434 33.0909 119.377 33.7104 119.275 34.3232C119.182 34.9043 118.999 35.4675 118.735 35.9932C118.471 36.5056 118.129 36.9733 117.719 37.3789C117.311 37.7927 116.838 38.1379 116.32 38.4014C115.795 38.6674 115.232 38.8527 114.652 38.9512C114.034 39.0522 113.409 39.1067 112.783 39.1143C112.49 39.1211 112.183 39.125 111.885 39.125L110.801 39.127L9.11137 39.125Z" fill="black"/>
<path d="M25.4355 20.3011C25.4463 19.4664 25.668 18.648 26.08 17.9221C26.492 17.1961 27.081 16.5862 27.7921 16.149C27.3403 15.5038 26.7444 14.9729 26.0515 14.5983C25.3587 14.2238 24.5881 14.016 23.8009 13.9913C22.1217 13.8151 20.4937 14.9962 19.638 14.9962C18.7657 14.9962 17.4482 14.0088 16.0295 14.038C15.1118 14.0677 14.2175 14.3345 13.4336 14.8126C12.6497 15.2906 12.003 15.9636 11.5566 16.7659C9.62258 20.1143 11.0652 25.0354 12.9178 27.742C13.8447 29.0673 14.928 30.5478 16.3454 30.4953C17.7325 30.4377 18.2505 29.6108 19.9248 29.6108C21.5836 29.6108 22.0696 30.4953 23.5158 30.4619C25.0042 30.4377 25.9419 29.1306 26.8363 27.7927C27.5023 26.8484 28.0148 25.8047 28.3547 24.7002C27.49 24.3345 26.7521 23.7223 26.233 22.94C25.7139 22.1577 25.4365 21.2399 25.4355 20.3011Z" fill="white"/>
<path d="M22.7038 12.2113C23.5154 11.2371 23.9152 9.98494 23.8184 8.7207C22.5785 8.85092 21.4333 9.44348 20.6108 10.3803C20.2086 10.838 19.9006 11.3704 19.7044 11.9472C19.5081 12.524 19.4275 13.1337 19.4671 13.7417C20.0872 13.7481 20.7007 13.6137 21.2614 13.3486C21.822 13.0835 22.3152 12.6946 22.7038 12.2113Z" fill="white"/>
<path d="M42.9688 27.1397H38.2354L37.0986 30.4961H35.0938L39.5772 18.0781H41.6602L46.1436 30.4961H44.1045L42.9688 27.1397ZM38.7256 25.5908H42.4776L40.628 20.1436H40.5762L38.7256 25.5908Z" fill="white"/>
<path d="M55.8262 25.9695C55.8262 28.7829 54.3203 30.5905 52.0479 30.5905C51.4722 30.6207 50.8997 30.4881 50.3959 30.2079C49.8921 29.9278 49.4774 29.5114 49.1993 29.0065H49.1562V33.4909H47.2979V21.4421H49.0967V22.948H49.1309C49.4218 22.4455 49.8436 22.0313 50.3512 21.7495C50.8588 21.4676 51.4334 21.3287 52.0137 21.3474C54.3115 21.3474 55.8262 23.1638 55.8262 25.9695ZM53.916 25.9695C53.916 24.1365 52.9688 22.9314 51.5235 22.9314C50.1035 22.9314 49.1485 24.1618 49.1485 25.9695C49.1485 27.7937 50.1035 29.0154 51.5235 29.0154C52.9688 29.0154 53.916 27.8191 53.916 25.9695Z" fill="white"/>
<path d="M65.791 25.9694C65.791 28.7829 64.2852 30.5905 62.0127 30.5905C61.4371 30.6206 60.8646 30.488 60.3608 30.2079C59.857 29.9278 59.4423 29.5114 59.1641 29.0065H59.1211V33.4909H57.2627V21.4421H59.0615V22.948H59.0957C59.3867 22.4455 59.8084 22.0313 60.316 21.7495C60.8236 21.4676 61.3982 21.3287 61.9785 21.3474C64.2764 21.3474 65.791 23.1638 65.791 25.9694ZM63.8809 25.9694C63.8809 24.1364 62.9336 22.9314 61.4883 22.9314C60.0684 22.9314 59.1133 24.1618 59.1133 25.9694C59.1133 27.7937 60.0684 29.0153 61.4883 29.0153C62.9336 29.0153 63.8809 27.8191 63.8809 25.9694H63.8809Z" fill="white"/>
<path d="M72.377 27.0362C72.5147 28.2676 73.711 29.0762 75.3457 29.0762C76.9121 29.0762 78.0391 28.2676 78.0391 27.1572C78.0391 26.1934 77.3594 25.6162 75.75 25.2207L74.1407 24.833C71.8604 24.2822 70.8018 23.2158 70.8018 21.4854C70.8018 19.3428 72.669 17.8711 75.3203 17.8711C77.9443 17.8711 79.7432 19.3428 79.8037 21.4854H77.9277C77.8154 20.2461 76.791 19.4981 75.294 19.4981C73.7969 19.4981 72.7725 20.2549 72.7725 21.3565C72.7725 22.2344 73.4268 22.751 75.0274 23.1465L76.3955 23.4824C78.9434 24.0849 80.002 25.1084 80.002 26.9248C80.002 29.248 78.1514 30.7031 75.208 30.7031C72.4541 30.7031 70.5947 29.2822 70.4746 27.0361L72.377 27.0362Z" fill="white"/>
<path d="M84.0127 19.2998V21.4424H85.7344V22.9141H84.0127V27.9053C84.0127 28.6807 84.3574 29.042 85.1143 29.042C85.3186 29.0384 85.5227 29.0241 85.7256 28.999V30.4619C85.3853 30.5255 85.0395 30.5543 84.6934 30.5478C82.8604 30.5478 82.1455 29.8593 82.1455 28.1035V22.9141H80.8291V21.4424H82.1455V19.2998H84.0127Z" fill="white"/>
<path d="M86.7314 25.9697C86.7314 23.1211 88.4092 21.3311 91.0254 21.3311C93.6504 21.3311 95.3203 23.1211 95.3203 25.9697C95.3203 28.8262 93.6592 30.6084 91.0254 30.6084C88.3925 30.6084 86.7314 28.8262 86.7314 25.9697ZM93.4268 25.9697C93.4268 24.0156 92.5312 22.8623 91.0254 22.8623C89.5195 22.8623 88.625 24.0244 88.625 25.9697C88.625 27.9316 89.5195 29.0762 91.0254 29.0762C92.5312 29.0762 93.4267 27.9316 93.4267 25.9697H93.4268Z" fill="white"/>
<path d="M96.8525 21.442H98.625V22.983H98.668C98.7879 22.5017 99.0699 22.0764 99.4665 21.7785C99.8631 21.4806 100.35 21.3284 100.846 21.3473C101.06 21.3465 101.273 21.3698 101.482 21.4166V23.1549C101.212 23.0723 100.93 23.0343 100.647 23.0426C100.377 23.0316 100.108 23.0792 99.8585 23.1821C99.6086 23.285 99.384 23.4408 99.2001 23.6386C99.0161 23.8365 98.8771 24.0719 98.7927 24.3286C98.7083 24.5852 98.6804 24.8571 98.7109 25.1256V30.4957H96.8525L96.8525 21.442Z" fill="white"/>
<path d="M110.051 27.8369C109.801 29.4805 108.2 30.6084 106.152 30.6084C103.519 30.6084 101.884 28.8437 101.884 26.0127C101.884 23.1729 103.527 21.3311 106.074 21.3311C108.579 21.3311 110.154 23.0518 110.154 25.7969V26.4336H103.76V26.5459C103.73 26.8791 103.772 27.2148 103.882 27.5306C103.992 27.8464 104.168 28.1352 104.399 28.3778C104.629 28.6203 104.908 28.8111 105.218 28.9374C105.528 29.0637 105.861 29.1226 106.195 29.1103C106.634 29.1515 107.075 29.0498 107.452 28.8203C107.829 28.5909 108.121 28.246 108.286 27.8369L110.051 27.8369ZM103.769 25.1348H108.295C108.312 24.8352 108.266 24.5354 108.162 24.2541C108.057 23.9729 107.895 23.7164 107.687 23.5006C107.478 23.2849 107.227 23.1145 106.95 23.0003C106.672 22.8861 106.374 22.8305 106.074 22.8369C105.772 22.8351 105.472 22.8933 105.192 23.008C104.912 23.1227 104.657 23.2918 104.443 23.5054C104.228 23.7191 104.058 23.973 103.943 24.2527C103.827 24.5323 103.768 24.8321 103.769 25.1348V25.1348Z" fill="white"/>
</svg>
