<svg width="24" height="26" viewBox="0 0 24 26" fill="none" xmlns="http://www.w3.org/2000/svg">
<path d="M11.3863 12.4199L0.736328 23.7199C0.852671 24.1473 1.0657 24.5423 1.35897 24.8742C1.65223 25.2062 2.01788 25.4663 2.42767 25.6345C2.83745 25.8026 3.28042 25.8744 3.72233 25.8441C4.16425 25.8138 4.59329 25.6824 4.97633 25.4599L16.9763 18.5399L11.3863 12.4199Z" fill="#EA4335"/>
<path d="M22.1565 10.5L16.9765 7.5L11.1565 12.69L16.9965 18.54L22.1465 15.54C22.6043 15.2948 22.987 14.93 23.2538 14.4845C23.5206 14.0389 23.6615 13.5293 23.6615 13.01C23.6615 12.4907 23.5206 11.9811 23.2538 11.5355C22.987 11.09 22.6043 10.7252 22.1465 10.48L22.1565 10.5Z" fill="#FBBC04"/>
<path d="M0.736553 2.28027C0.68367 2.51648 0.660159 2.75831 0.666553 3.00027V23.0003C0.668299 23.2502 0.701903 23.4989 0.766554 23.7403L11.7666 12.7403L0.736553 2.28027Z" fill="#4285F4"/>
<path d="M11.4665 12.9996L16.9765 7.48965L4.97654 0.549648C4.52571 0.281649 4.01102 0.140022 3.48654 0.139648C2.8539 0.141461 2.23934 0.350817 1.73715 0.735584C1.23497 1.12035 0.87291 1.65927 0.706543 2.26965L11.4665 12.9996Z" fill="#34A853"/>
</svg>
