<svg width="136" height="40" viewBox="0 0 136 40" fill="none" xmlns="http://www.w3.org/2000/svg">
<path d="M130.667 0H5.6665C2.90508 0 0.666504 2.23858 0.666504 5V35C0.666504 37.7614 2.90508 40 5.6665 40H130.667C133.428 40 135.667 37.7614 135.667 35V5C135.667 2.23858 133.428 0 130.667 0Z" fill="black"/>
<path d="M130.667 0.8C131.78 0.8 132.849 1.2425 133.636 2.03015C134.424 2.8178 134.867 3.88609 134.867 5V35C134.867 36.1139 134.424 37.1822 133.636 37.9698C132.849 38.7575 131.78 39.2 130.667 39.2H5.6665C4.55259 39.2 3.48431 38.7575 2.69666 37.9698C1.909 37.1822 1.4665 36.1139 1.4665 35V5C1.4665 3.88609 1.909 2.8178 2.69666 2.03015C3.48431 1.2425 4.55259 0.8 5.6665 0.8H130.667ZM130.667 0H5.6665C4.34042 0 3.06865 0.526784 2.13097 1.46447C1.19329 2.40215 0.666504 3.67392 0.666504 5V35C0.666504 36.3261 1.19329 37.5979 2.13097 38.5355C3.06865 39.4732 4.34042 40 5.6665 40H130.667C131.993 40 133.264 39.4732 134.202 38.5355C135.14 37.5979 135.667 36.3261 135.667 35V5C135.667 3.67392 135.14 2.40215 134.202 1.46447C133.264 0.526784 131.993 0 130.667 0Z" fill="#A6A6A6"/>
<path d="M45.0422 10.4858H47.1331V13.3869C46.8194 13.4933 46.4962 13.5724 46.1634 13.6242C45.8333 13.676 45.4637 13.702 45.0545 13.702C44.4326 13.702 43.9074 13.5778 43.4792 13.3296C43.0536 13.0814 42.7304 12.7281 42.5094 12.2698C42.2885 11.8088 42.178 11.2619 42.178 10.629C42.178 10.0098 42.2994 9.46967 42.5421 9.00866C42.7877 8.54765 43.1409 8.1903 43.6019 7.93661C44.0657 7.68019 44.6221 7.55198 45.2714 7.55198C45.6042 7.55198 45.9192 7.58335 46.2166 7.64609C46.5166 7.70611 46.7949 7.79203 47.0513 7.90388L46.7853 8.50946C46.5644 8.41399 46.3202 8.33215 46.0529 8.26396C45.7883 8.19576 45.5142 8.16166 45.2305 8.16166C44.7422 8.16166 44.3234 8.26259 43.9743 8.46445C43.6278 8.66632 43.3619 8.95138 43.1764 9.31964C42.9936 9.6879 42.9022 10.1244 42.9022 10.629C42.9022 11.1282 42.9827 11.5633 43.1436 11.9343C43.3046 12.3026 43.5556 12.589 43.8965 12.7936C44.2375 12.9982 44.6767 13.1005 45.2141 13.1005C45.4842 13.1005 45.716 13.0855 45.9097 13.0554C46.1034 13.0227 46.2793 12.9845 46.4375 12.9409V11.1078H45.0422V10.4858ZM51.9124 13.6201H48.5816V7.63791H51.9124V8.25168H49.2772V10.1871H51.761V10.7927H49.2772V13.0063H51.9124V13.6201ZM55.0753 13.6201H54.3756V8.25168H52.4934V7.63791H56.9494V8.25168H55.0753V13.6201ZM60.0305 13.6201V7.63791H60.7261V13.6201H60.0305ZM64.2082 13.6201H63.5085V8.25168H61.6263V7.63791H66.0823V8.25168H64.2082V13.6201ZM74.3518 10.6208C74.3518 11.0818 74.2931 11.5019 74.1758 11.8811C74.0585 12.2575 73.8839 12.5822 73.6521 12.855C73.4229 13.125 73.1379 13.3337 72.7969 13.481C72.4559 13.6283 72.0604 13.702 71.6103 13.702C71.1465 13.702 70.7414 13.6283 70.395 13.481C70.0513 13.3337 69.7649 13.1236 69.5357 12.8509C69.3093 12.5781 69.1388 12.2521 69.0243 11.8729C68.9124 11.4937 68.8565 11.0737 68.8565 10.6126C68.8565 10.0016 68.9574 9.46558 69.1593 9.00457C69.3611 8.54356 69.6667 8.18485 70.0759 7.92843C70.4878 7.67201 71.0033 7.5438 71.6225 7.5438C72.2145 7.5438 72.7123 7.67064 73.1161 7.92434C73.5225 8.17803 73.8294 8.53538 74.0367 8.99639C74.2468 9.45467 74.3518 9.99615 74.3518 10.6208ZM69.5889 10.6208C69.5889 11.1282 69.6612 11.5674 69.8058 11.9384C69.9504 12.3094 70.1713 12.5958 70.4687 12.7977C70.7687 12.9995 71.1493 13.1005 71.6103 13.1005C72.074 13.1005 72.4532 12.9995 72.7478 12.7977C73.0451 12.5958 73.2647 12.3094 73.4066 11.9384C73.5484 11.5674 73.6193 11.1282 73.6193 10.6208C73.6193 9.84884 73.457 9.24599 73.1324 8.81226C72.8105 8.3758 72.3072 8.15757 71.6225 8.15757C71.1588 8.15757 70.7769 8.25714 70.4768 8.45627C70.1768 8.6554 69.9531 8.9391 69.8058 9.30736C69.6612 9.6729 69.5889 10.1107 69.5889 10.6208ZM80.3626 13.6201H79.5606L76.2995 8.59539H76.2667C76.2749 8.72906 76.2845 8.88182 76.2954 9.05367C76.3063 9.2228 76.3145 9.4042 76.3199 9.59788C76.3281 9.78883 76.3322 9.98387 76.3322 10.183V13.6201H75.6857V7.63791H76.4836L79.7325 12.6463H79.7611C79.7557 12.5508 79.7489 12.4158 79.7407 12.2412C79.7325 12.0639 79.7243 11.8743 79.7161 11.6724C79.7107 11.4678 79.7079 11.2782 79.7079 11.1037V7.63791H80.3626V13.6201Z" fill="white"/>
<path d="M45.0422 10.4858V10.3858H44.9422V10.4858H45.0422ZM47.1331 10.4858H47.2331V10.3858H47.1331V10.4858ZM47.1331 13.3869L47.1653 13.4816L47.2331 13.4586V13.3869H47.1331ZM46.1634 13.6242L46.148 13.5254L46.1479 13.5254L46.1634 13.6242ZM43.4792 13.3296L43.4288 13.416L43.429 13.4161L43.4792 13.3296ZM42.5094 12.2698L42.4192 12.313L42.4193 12.3133L42.5094 12.2698ZM42.5421 9.00866L42.4539 8.96166L42.4537 8.96207L42.5421 9.00866ZM43.6019 7.93661L43.6501 8.02422L43.6503 8.02412L43.6019 7.93661ZM46.2166 7.64609L46.1959 7.74394L46.197 7.74415L46.2166 7.64609ZM47.0513 7.90388L47.1429 7.94409L47.1832 7.8523L47.0913 7.81222L47.0513 7.90388ZM46.7853 8.50946L46.7457 8.60126L46.8369 8.64069L46.8769 8.54967L46.7853 8.50946ZM46.0529 8.26396L46.028 8.36079L46.0282 8.36085L46.0529 8.26396ZM43.9743 8.46445L43.9242 8.37788L43.9239 8.37805L43.9743 8.46445ZM43.1764 9.31964L43.0871 9.27465L43.0868 9.27518L43.1764 9.31964ZM43.1436 11.9343L43.0519 11.9741L43.052 11.9743L43.1436 11.9343ZM43.8965 12.7936L43.8451 12.8793L43.8965 12.7936ZM45.9097 13.0554L45.925 13.1543L45.9264 13.1541L45.9097 13.0554ZM46.4375 12.9409L46.4641 13.0373L46.5375 13.017V12.9409H46.4375ZM46.4375 11.1078H46.5375V11.0078H46.4375V11.1078ZM45.0422 11.1078H44.9422V11.2078H45.0422V11.1078ZM45.0422 10.5858H47.1331V10.3858H45.0422V10.5858ZM47.0331 10.4858V13.3869H47.2331V10.4858H47.0331ZM47.101 13.2922C46.7929 13.3967 46.4752 13.4744 46.148 13.5254L46.1788 13.723C46.5172 13.6703 46.846 13.5899 47.1653 13.4816L47.101 13.2922ZM46.1479 13.5254C45.8239 13.5763 45.4596 13.602 45.0545 13.602V13.802C45.4678 13.802 45.8427 13.7758 46.1789 13.723L46.1479 13.5254ZM45.0545 13.602C44.4457 13.602 43.9389 13.4805 43.5293 13.2431L43.429 13.4161C43.876 13.6752 44.4194 13.802 45.0545 13.802V13.602ZM43.5296 13.2432C43.1218 13.0054 42.8121 12.6673 42.5995 12.2264L42.4193 12.3133C42.6486 12.7889 42.9854 13.1574 43.4288 13.416L43.5296 13.2432ZM42.5996 12.2266C42.3865 11.7819 42.278 11.2504 42.278 10.629H42.078C42.078 11.2734 42.1905 11.8357 42.4192 12.313L42.5996 12.2266ZM42.278 10.629C42.278 10.023 42.3967 9.49943 42.6306 9.05526L42.4537 8.96207C42.202 9.43992 42.078 9.9966 42.078 10.629H42.278ZM42.6304 9.05567C42.8667 8.61193 43.206 8.26863 43.6501 8.02422L43.5537 7.849C43.0758 8.11198 42.7086 8.48338 42.4539 8.96166L42.6304 9.05567ZM43.6503 8.02412C44.0963 7.77755 44.6353 7.65198 45.2714 7.65198V7.45198C44.609 7.45198 44.0351 7.58284 43.5535 7.8491L43.6503 8.02412ZM45.2714 7.65198C45.5979 7.65198 45.906 7.68276 46.1959 7.74394L46.2372 7.54825C45.9325 7.48395 45.6105 7.45198 45.2714 7.45198V7.65198ZM46.197 7.74415C46.4907 7.80289 46.762 7.8868 47.0113 7.99554L47.0913 7.81222C46.8277 7.69727 46.5426 7.60932 46.2362 7.54804L46.197 7.74415ZM46.9597 7.86367L46.6938 8.46925L46.8769 8.54967L47.1429 7.94409L46.9597 7.86367ZM46.825 8.41767C46.5986 8.31982 46.3493 8.23637 46.0776 8.16706L46.0282 8.36085C46.2911 8.42793 46.5302 8.50815 46.7457 8.60126L46.825 8.41767ZM46.0779 8.16712C45.8048 8.09674 45.5223 8.06166 45.2305 8.06166V8.26166C45.5061 8.26166 45.7718 8.29477 46.028 8.36079L46.0779 8.16712ZM45.2305 8.06166C44.7283 8.06166 44.2915 8.16554 43.9242 8.37788L44.0243 8.55103C44.3554 8.35964 44.756 8.26166 45.2305 8.26166V8.06166ZM43.9239 8.37805C43.5603 8.58995 43.281 8.88962 43.0871 9.27465L43.2657 9.36462C43.4427 9.01313 43.6954 8.74269 44.0246 8.55086L43.9239 8.37805ZM43.0868 9.27518C42.8958 9.66005 42.8022 10.1124 42.8022 10.629H43.0022C43.0022 10.1363 43.0914 9.71575 43.266 9.36409L43.0868 9.27518ZM42.8022 10.629C42.8022 11.1388 42.8844 11.588 43.0519 11.9741L43.2354 11.8945C43.081 11.5386 43.0022 11.1176 43.0022 10.629H42.8022ZM43.052 11.9743C43.2212 12.3614 43.4861 12.6639 43.8451 12.8793L43.948 12.7078C43.625 12.514 43.388 12.2437 43.2353 11.8943L43.052 11.9743ZM43.8451 12.8793C44.2061 13.096 44.6647 13.2005 45.2141 13.2005V13.0005C44.6887 13.0005 44.2689 12.9004 43.948 12.7078L43.8451 12.8793ZM45.2141 13.2005C45.4875 13.2005 45.7248 13.1853 45.925 13.1543L45.8944 12.9566C45.7073 12.9856 45.4808 13.0005 45.2141 13.0005V13.2005ZM45.9264 13.1541C46.1228 13.1209 46.3021 13.082 46.4641 13.0373L46.4109 12.8445C46.2566 12.8871 46.084 12.9246 45.893 12.9568L45.9264 13.1541ZM46.5375 12.9409V11.1078H46.3375V12.9409H46.5375ZM46.4375 11.0078H45.0422V11.2078H46.4375V11.0078ZM45.1422 11.1078V10.4858H44.9422V11.1078H45.1422ZM51.9124 13.6201V13.7201H52.0124V13.6201H51.9124ZM48.5816 13.6201H48.4816V13.7201H48.5816V13.6201ZM48.5816 7.63791V7.53791H48.4816V7.63791H48.5816ZM51.9124 7.63791H52.0124V7.53791H51.9124V7.63791ZM51.9124 8.25168V8.35168H52.0124V8.25168H51.9124ZM49.2772 8.25168V8.15168H49.1772V8.25168H49.2772ZM49.2772 10.1871H49.1772V10.2871H49.2772V10.1871ZM51.761 10.1871H51.861V10.0871H51.761V10.1871ZM51.761 10.7927V10.8927H51.861V10.7927H51.761ZM49.2772 10.7927V10.6927H49.1772V10.7927H49.2772ZM49.2772 13.0063H49.1772V13.1063H49.2772V13.0063ZM51.9124 13.0063H52.0124V12.9063H51.9124V13.0063ZM51.9124 13.5201H48.5816V13.7201H51.9124V13.5201ZM48.6816 13.6201V7.63791H48.4816V13.6201H48.6816ZM48.5816 7.73791H51.9124V7.53791H48.5816V7.73791ZM51.8124 7.63791V8.25168H52.0124V7.63791H51.8124ZM51.9124 8.15168H49.2772V8.35168H51.9124V8.15168ZM49.1772 8.25168V10.1871H49.3772V8.25168H49.1772ZM49.2772 10.2871H51.761V10.0871H49.2772V10.2871ZM51.661 10.1871V10.7927H51.861V10.1871H51.661ZM51.761 10.6927H49.2772V10.8927H51.761V10.6927ZM49.1772 10.7927V13.0063H49.3772V10.7927H49.1772ZM49.2772 13.1063H51.9124V12.9063H49.2772V13.1063ZM51.8124 13.0063V13.6201H52.0124V13.0063H51.8124ZM55.0753 13.6201V13.7201H55.1753V13.6201H55.0753ZM54.3756 13.6201H54.2756V13.7201H54.3756V13.6201ZM54.3756 8.25168H54.4756V8.15168H54.3756V8.25168ZM52.4934 8.25168H52.3934V8.35168H52.4934V8.25168ZM52.4934 7.63791V7.53791H52.3934V7.63791H52.4934ZM56.9494 7.63791H57.0494V7.53791H56.9494V7.63791ZM56.9494 8.25168V8.35168H57.0494V8.25168H56.9494ZM55.0753 8.25168V8.15168H54.9753V8.25168H55.0753ZM55.0753 13.5201H54.3756V13.7201H55.0753V13.5201ZM54.4756 13.6201V8.25168H54.2756V13.6201H54.4756ZM54.3756 8.15168H52.4934V8.35168H54.3756V8.15168ZM52.5934 8.25168V7.63791H52.3934V8.25168H52.5934ZM52.4934 7.73791H56.9494V7.53791H52.4934V7.73791ZM56.8494 7.63791V8.25168H57.0494V7.63791H56.8494ZM56.9494 8.15168H55.0753V8.35168H56.9494V8.15168ZM54.9753 8.25168V13.6201H55.1753V8.25168H54.9753ZM60.0305 13.6201H59.9305V13.7201H60.0305V13.6201ZM60.0305 7.63791V7.53791H59.9305V7.63791H60.0305ZM60.7261 7.63791H60.8261V7.53791H60.7261V7.63791ZM60.7261 13.6201V13.7201H60.8261V13.6201H60.7261ZM60.1305 13.6201V7.63791H59.9305V13.6201H60.1305ZM60.0305 7.73791H60.7261V7.53791H60.0305V7.73791ZM60.6261 7.63791V13.6201H60.8261V7.63791H60.6261ZM60.7261 13.5201H60.0305V13.7201H60.7261V13.5201ZM64.2082 13.6201V13.7201H64.3082V13.6201H64.2082ZM63.5085 13.6201H63.4085V13.7201H63.5085V13.6201ZM63.5085 8.25168H63.6085V8.15168H63.5085V8.25168ZM61.6263 8.25168H61.5263V8.35168H61.6263V8.25168ZM61.6263 7.63791V7.53791H61.5263V7.63791H61.6263ZM66.0823 7.63791H66.1823V7.53791H66.0823V7.63791ZM66.0823 8.25168V8.35168H66.1823V8.25168H66.0823ZM64.2082 8.25168V8.15168H64.1082V8.25168H64.2082ZM64.2082 13.5201H63.5085V13.7201H64.2082V13.5201ZM63.6085 13.6201V8.25168H63.4085V13.6201H63.6085ZM63.5085 8.15168H61.6263V8.35168H63.5085V8.15168ZM61.7263 8.25168V7.63791H61.5263V8.25168H61.7263ZM61.6263 7.73791H66.0823V7.53791H61.6263V7.73791ZM65.9823 7.63791V8.25168H66.1823V7.63791H65.9823ZM66.0823 8.15168H64.2082V8.35168H66.0823V8.15168ZM64.1082 8.25168V13.6201H64.3082V8.25168H64.1082ZM74.1758 11.8811L74.2713 11.9109L74.2714 11.9107L74.1758 11.8811ZM73.6521 12.855L73.5759 12.7902L73.5758 12.7903L73.6521 12.855ZM72.7969 13.481L72.8366 13.5728L72.7969 13.481ZM70.395 13.481L70.3556 13.5729L70.3559 13.573L70.395 13.481ZM69.5357 12.8509L69.4588 12.9147L69.4592 12.9152L69.5357 12.8509ZM69.0243 11.8729L68.9283 11.9012L68.9285 11.9018L69.0243 11.8729ZM70.0758 7.92843L70.023 7.84353L70.0227 7.84369L70.0758 7.92843ZM73.1161 7.92434L73.0628 8.00901L73.0631 8.00917L73.1161 7.92434ZM74.0367 8.99639L73.9455 9.0374L73.9458 9.03805L74.0367 8.99639ZM70.4687 12.7977L70.4125 12.8804L70.4128 12.8806L70.4687 12.7977ZM72.7478 12.7977L72.6916 12.7149L72.6913 12.7152L72.7478 12.7977ZM73.1324 8.81226L73.0519 8.87161L73.0524 8.87218L73.1324 8.81226ZM70.4768 8.45627L70.4216 8.37295L70.4768 8.45627ZM69.8058 9.30736L69.7129 9.27022L69.7128 9.27058L69.8058 9.30736ZM74.2518 10.6208C74.2518 11.0734 74.1942 11.4833 74.0803 11.8516L74.2714 11.9107C74.3921 11.5205 74.4518 11.0903 74.4518 10.6208H74.2518ZM74.0804 11.8514C73.9667 12.2163 73.7982 12.5287 73.5759 12.7902L73.7283 12.9197C73.9697 12.6357 74.1504 12.2988 74.2713 11.9109L74.0804 11.8514ZM73.5758 12.7903C73.3571 13.048 73.0848 13.2477 72.7572 13.3892L72.8366 13.5728C73.1909 13.4197 73.4888 13.202 73.7283 12.9196L73.5758 12.7903ZM72.7572 13.3892C72.4311 13.5301 72.0496 13.602 71.6103 13.602V13.802C72.0712 13.802 72.4807 13.7265 72.8366 13.5728L72.7572 13.3892ZM71.6103 13.602C71.157 13.602 70.7657 13.5299 70.4341 13.389L70.3559 13.573C70.7172 13.7267 71.1361 13.802 71.6103 13.802V13.602ZM70.4344 13.3891C70.1043 13.2476 69.8309 13.0467 69.6123 12.7865L69.4592 12.9152C69.6989 13.2005 69.9983 13.4198 70.3556 13.5729L70.4344 13.3891ZM69.6127 12.787C69.3957 12.5256 69.2311 12.2119 69.12 11.844L68.9285 11.9018C69.0465 12.2923 69.2229 12.6305 69.4588 12.9147L69.6127 12.787ZM69.1202 11.8446C69.0114 11.476 68.9565 11.0656 68.9565 10.6126H68.7565C68.7565 11.0817 68.8134 11.5115 68.9283 11.9012L69.1202 11.8446ZM68.9565 10.6126C68.9565 10.0125 69.0556 9.49064 69.2509 9.04468L69.0677 8.96446C68.8592 9.44052 68.7565 9.99069 68.7565 10.6126H68.9565ZM69.2509 9.04468C69.4451 8.60125 69.7375 8.25845 70.129 8.01316L70.0227 7.84369C69.5958 8.11125 69.2772 8.48587 69.0677 8.96446L69.2509 9.04468ZM70.1287 8.01332C70.5209 7.76916 71.0169 7.6438 71.6225 7.6438V7.4438C70.9897 7.4438 70.4546 7.57485 70.023 7.84353L70.1287 8.01332ZM71.6225 7.6438C72.2002 7.6438 72.6785 7.7675 73.0629 8.00901L73.1693 7.83966C72.7461 7.57379 72.2288 7.4438 71.6225 7.4438V7.6438ZM73.0631 8.00917C73.4518 8.25177 73.7458 8.59342 73.9455 9.0374L74.1279 8.95537C73.9129 8.47734 73.5932 8.10428 73.169 7.8395L73.0631 8.00917ZM73.9458 9.03805C74.1486 9.48052 74.2518 10.0072 74.2518 10.6208H74.4518C74.4518 9.98512 74.3449 9.42881 74.1276 8.95472L73.9458 9.03805ZM69.4889 10.6208C69.4889 11.1374 69.5625 11.5894 69.7126 11.9747L69.899 11.9021C69.7599 11.5454 69.6889 11.1191 69.6889 10.6208H69.4889ZM69.7126 11.9747C69.8637 12.3624 70.0966 12.666 70.4125 12.8804L70.5248 12.7149C70.246 12.5257 70.037 12.2563 69.899 11.9021L69.7126 11.9747ZM70.4128 12.8806C70.7334 13.0963 71.1348 13.2005 71.6103 13.2005V13.0005C71.1637 13.0005 70.804 12.9028 70.5245 12.7147L70.4128 12.8806ZM71.6103 13.2005C72.0882 13.2005 72.4887 13.0964 72.8043 12.8802L72.6913 12.7152C72.4176 12.9027 72.0598 13.0005 71.6103 13.0005V13.2005ZM72.804 12.8804C73.12 12.6658 73.3516 12.3621 73.5 11.9741L73.3132 11.9027C73.1778 12.2567 72.9703 12.5258 72.6916 12.7149L72.804 12.8804ZM73.5 11.9741C73.6472 11.589 73.7193 11.1372 73.7193 10.6208H73.5193C73.5193 11.1192 73.4496 11.5458 73.3132 11.9027L73.5 11.9741ZM73.7193 10.6208C73.7193 9.83614 73.5545 9.20934 73.2125 8.75234L73.0524 8.87218C73.3596 9.28263 73.5193 9.86155 73.5193 10.6208H73.7193ZM73.2129 8.7529C72.8673 8.28426 72.3298 8.05757 71.6225 8.05757V8.25757C72.2847 8.25757 72.7538 8.46734 73.0519 8.87161L73.2129 8.7529ZM71.6225 8.05757C71.1448 8.05757 70.7421 8.1602 70.4216 8.37295L70.5321 8.53959C70.8117 8.35407 71.1729 8.25757 71.6225 8.25757V8.05757ZM70.4216 8.37295C70.1029 8.58444 69.867 8.88511 69.7129 9.27022L69.8986 9.3445C70.0392 8.99309 70.2507 8.72637 70.5321 8.53959L70.4216 8.37295ZM69.7128 9.27058C69.5624 9.65074 69.4889 10.1017 69.4889 10.6208H69.6889C69.6889 10.1197 69.76 9.69505 69.8988 9.34414L69.7128 9.27058ZM80.3626 13.6201V13.7201H80.4626V13.6201H80.3626ZM79.5606 13.6201L79.4768 13.6746L79.5063 13.7201H79.5606V13.6201ZM76.2995 8.59539L76.3834 8.54095L76.3538 8.49539H76.2995V8.59539ZM76.2667 8.59539V8.49539H76.1604L76.1669 8.6015L76.2667 8.59539ZM76.2954 9.05367L76.1956 9.06001L76.1956 9.06011L76.2954 9.05367ZM76.3199 9.59788L76.22 9.6007L76.22 9.60216L76.3199 9.59788ZM76.3322 13.6201V13.7201H76.4322V13.6201H76.3322ZM75.6857 13.6201H75.5857V13.7201H75.6857V13.6201ZM75.6857 7.63791V7.53791H75.5857V7.63791H75.6857ZM76.4836 7.63791L76.5675 7.58349L76.5379 7.53791H76.4836V7.63791ZM79.7325 12.6463L79.6486 12.7007L79.6782 12.7463H79.7325V12.6463ZM79.7611 12.6463V12.7463H79.867L79.861 12.6406L79.7611 12.6463ZM79.7407 12.2412L79.6408 12.2458L79.6408 12.2459L79.7407 12.2412ZM79.7161 11.6724L79.6161 11.6751L79.6162 11.6765L79.7161 11.6724ZM79.7079 7.63791V7.53791H79.6079V7.63791H79.7079ZM80.3626 7.63791H80.4626V7.53791H80.3626V7.63791ZM80.3626 13.5201H79.5606V13.7201H80.3626V13.5201ZM79.6445 13.5657L76.3834 8.54095L76.2156 8.64983L79.4768 13.6746L79.6445 13.5657ZM76.2995 8.49539H76.2667V8.69539H76.2995V8.49539ZM76.1669 8.6015C76.1751 8.73526 76.1847 8.8881 76.1956 9.06001L76.3952 9.04734C76.3843 8.87554 76.3747 8.72285 76.3666 8.58928L76.1669 8.6015ZM76.1956 9.06011C76.2064 9.22788 76.2145 9.40806 76.22 9.6007L76.4199 9.59507C76.4144 9.40035 76.4062 9.21772 76.3952 9.04723L76.1956 9.06011ZM76.22 9.60216C76.2281 9.79163 76.2322 9.98524 76.2322 10.183H76.4322C76.4322 9.98251 76.4281 9.78603 76.4198 9.5936L76.22 9.60216ZM76.2322 10.183V13.6201H76.4322V10.183H76.2322ZM76.3322 13.5201H75.6857V13.7201H76.3322V13.5201ZM75.7857 13.6201V7.63791H75.5857V13.6201H75.7857ZM75.6857 7.73791H76.4836V7.53791H75.6857V7.73791ZM76.3997 7.69233L79.6486 12.7007L79.8164 12.5918L76.5675 7.58349L76.3997 7.69233ZM79.7325 12.7463H79.7611V12.5463H79.7325V12.7463ZM79.861 12.6406C79.8555 12.5456 79.8487 12.411 79.8406 12.2365L79.6408 12.2459C79.649 12.4206 79.6558 12.556 79.6613 12.652L79.861 12.6406ZM79.8406 12.2366C79.8324 12.0595 79.8242 11.8701 79.816 11.6684L79.6162 11.6765C79.6244 11.8785 79.6326 12.0683 79.6408 12.2458L79.8406 12.2366ZM79.8161 11.6698C79.8107 11.4659 79.8079 11.2772 79.8079 11.1037H79.6079C79.6079 11.2793 79.6107 11.4698 79.6162 11.6751L79.8161 11.6698ZM79.8079 11.1037V7.63791H79.6079V11.1037H79.8079ZM79.7079 7.73791H80.3626V7.53791H79.7079V7.73791ZM80.2626 7.63791V13.6201H80.4626V7.63791H80.2626Z" fill="white"/>
<path d="M68.8066 21.7499C67.9641 21.7519 67.141 22.0037 66.4416 22.4734C65.7421 22.9432 65.1977 23.6098 64.8771 24.3889C64.5565 25.1681 64.4741 26.0248 64.6404 26.8508C64.8067 27.6768 65.2142 28.4349 65.8114 29.0293C66.4086 29.6236 67.1686 30.0276 67.9953 30.19C68.8221 30.3524 69.6784 30.2661 70.4561 29.9418C71.2337 29.6175 71.8978 29.07 72.3642 28.3683C72.8307 27.6667 73.0786 26.8425 73.0766 25.9999C73.0848 25.4379 72.9797 24.8799 72.7678 24.3593C72.5558 23.8386 72.2413 23.366 71.8429 22.9694C71.4444 22.5729 70.9703 22.2606 70.4487 22.051C69.9271 21.8415 69.3686 21.7391 68.8066 21.7499ZM68.8066 28.5799C68.2902 28.616 67.7748 28.496 67.3276 28.2353C66.8803 27.9747 66.5218 27.5855 66.2986 27.1184C66.0755 26.6512 65.998 26.1278 66.0763 25.6161C66.1546 25.1043 66.385 24.628 66.7376 24.249C67.0902 23.8699 67.5486 23.6057 68.0534 23.4907C68.5581 23.3757 69.0858 23.4152 69.5678 23.604C70.0498 23.7929 70.4638 24.1223 70.7561 24.5496C71.0484 24.9769 71.2053 25.4822 71.2066 25.9999C71.2227 26.3279 71.173 26.6559 71.0603 26.9643C70.9477 27.2728 70.7744 27.5556 70.5507 27.7961C70.3271 28.0366 70.0575 28.2298 69.7579 28.3644C69.4584 28.499 69.1349 28.5723 68.8066 28.5799ZM59.4866 21.7499C58.6441 21.7519 57.821 22.0037 57.1216 22.4734C56.4221 22.9432 55.8777 23.6098 55.5571 24.3889C55.2365 25.1681 55.1541 26.0248 55.3204 26.8508C55.4867 27.6768 55.8942 28.4349 56.4914 29.0293C57.0886 29.6236 57.8486 30.0276 58.6753 30.19C59.5021 30.3524 60.3584 30.2661 61.1361 29.9418C61.9137 29.6175 62.5778 29.07 63.0442 28.3683C63.5107 27.6667 63.7586 26.8425 63.7566 25.9999C63.7648 25.4379 63.6597 24.8799 63.4478 24.3593C63.2358 23.8386 62.9213 23.366 62.5229 22.9694C62.1244 22.5729 61.6503 22.2606 61.1287 22.051C60.6071 21.8415 60.0486 21.7391 59.4866 21.7499ZM59.4866 28.5799C58.9702 28.616 58.4548 28.496 58.0076 28.2353C57.5603 27.9747 57.2018 27.5855 56.9786 27.1184C56.7555 26.6512 56.678 26.1278 56.7563 25.6161C56.8346 25.1043 57.065 24.628 57.4176 24.249C57.7702 23.8699 58.2286 23.6057 58.7334 23.4907C59.2381 23.3757 59.7658 23.4152 60.2478 23.604C60.7298 23.7929 61.1438 24.1223 61.4361 24.5496C61.7284 24.9769 61.8853 25.4822 61.8866 25.9999C61.9027 26.3279 61.853 26.6559 61.7403 26.9643C61.6277 27.2728 61.4544 27.5556 61.2307 27.7961C61.0071 28.0366 60.7375 28.2298 60.438 28.3644C60.1384 28.499 59.8149 28.5723 59.4866 28.5799ZM48.4066 23.0599V24.8599H52.7266C52.6589 25.7077 52.3064 26.5077 51.7266 27.1299C51.2933 27.5714 50.7721 27.9171 50.1967 28.1444C49.6214 28.3718 49.0047 28.4759 48.3866 28.4499C47.1136 28.4499 45.8927 27.9442 44.9925 27.044C44.0923 26.1439 43.5866 24.923 43.5866 23.6499C43.5866 22.3769 44.0923 21.156 44.9925 20.2558C45.8927 19.3556 47.1136 18.8499 48.3866 18.8499C49.6071 18.8318 50.7855 19.2952 51.6666 20.1399L52.9366 18.8699C52.3406 18.2804 51.6329 17.8158 50.8551 17.5033C50.0772 17.1908 49.2448 17.0366 48.4066 17.0499C47.5176 17.0153 46.6308 17.1605 45.7992 17.4769C44.9677 17.7932 44.2086 18.2742 43.5674 18.8909C42.9261 19.5077 42.416 20.2475 42.0676 21.0661C41.7192 21.8847 41.5396 22.7652 41.5396 23.6549C41.5396 24.5446 41.7192 25.4251 42.0676 26.2437C42.416 27.0623 42.9261 27.8022 43.5674 28.4189C44.2086 29.0357 44.9677 29.5166 45.7992 29.833C46.6308 30.1493 47.5176 30.2945 48.4066 30.2599C49.262 30.2941 50.115 30.1469 50.9095 29.8281C51.704 29.5092 52.4221 29.0259 53.0166 28.4099C54.0667 27.2563 54.6263 25.7391 54.5766 24.1799C54.5802 23.8046 54.5501 23.4298 54.4866 23.0599H48.4066ZM93.7166 24.4599C93.4558 23.6927 92.9681 23.0227 92.3181 22.5388C91.6681 22.0548 90.8864 21.7797 90.0766 21.7499C89.5296 21.7489 88.9882 21.86 88.4858 22.0765C87.9835 22.2929 87.5309 22.6101 87.156 23.0085C86.7811 23.4068 86.4919 23.8778 86.3062 24.3923C86.1206 24.9068 86.0424 25.454 86.0766 25.9999C86.0681 26.9128 86.355 27.8039 86.8947 28.5402C87.4344 29.2765 88.1978 29.8184 89.0709 30.0851C89.9439 30.3517 90.8799 30.3288 91.7388 30.0196C92.5978 29.7105 93.3337 29.1318 93.8366 28.3699L92.3866 27.3699C92.1704 27.7302 91.8639 28.0277 91.4972 28.2329C91.1306 28.4382 90.7167 28.544 90.2966 28.5399C89.8632 28.5578 89.4345 28.4442 89.0668 28.214C88.6992 27.9837 88.4098 27.6477 88.2366 27.2499L93.9266 24.8999L93.7166 24.4599ZM87.9166 25.8799C87.8963 25.5693 87.9382 25.2578 88.0399 24.9635C88.1415 24.6693 88.3008 24.3983 88.5085 24.1664C88.7162 23.9346 88.968 23.7464 89.2493 23.6131C89.5306 23.4798 89.8356 23.4039 90.1466 23.3899C90.4688 23.3703 90.7896 23.4461 91.0689 23.608C91.3482 23.7699 91.5735 24.0106 91.7166 24.2999L87.9166 25.8799ZM83.2966 29.9999H85.1666V17.4999H83.2966V29.9999ZM80.2366 22.6999H80.1666C79.8873 22.3818 79.5425 22.1277 79.1559 21.9551C78.7693 21.7825 78.35 21.6955 77.9266 21.6999C76.8338 21.7529 75.8033 22.2243 75.0486 23.0165C74.2939 23.8087 73.8729 24.8608 73.8729 25.9549C73.8729 27.049 74.2939 28.1012 75.0486 28.8933C75.8033 29.6855 76.8338 30.1569 77.9266 30.2099C78.3506 30.2184 78.7712 30.1332 79.1584 29.9603C79.5456 29.7875 79.8899 29.5312 80.1666 29.2099H80.2366V29.8199C80.2366 31.4499 79.3666 32.3199 77.9666 32.3199C77.4989 32.3096 77.0449 32.1606 76.662 31.8918C76.2792 31.6229 75.985 31.2464 75.8166 30.8099L74.1966 31.4799C74.4961 32.2322 75.0169 32.8758 75.69 33.3258C76.3631 33.7757 77.157 34.0108 77.9666 33.9999C80.1566 33.9999 81.9666 32.7099 81.9666 29.5699V21.9999H80.2366V22.6999ZM78.0866 28.5799C77.4314 28.5391 76.8164 28.25 76.3669 27.7716C75.9174 27.2932 75.6672 26.6614 75.6672 26.0049C75.6672 25.3485 75.9174 24.7167 76.3669 24.2383C76.8164 23.7598 77.4314 23.4708 78.0866 23.4299C78.4068 23.4437 78.721 23.5218 79.0105 23.6596C79.2999 23.7973 79.5587 23.9918 79.7714 24.2316C79.9841 24.4714 80.1464 24.7515 80.2487 25.0553C80.3509 25.3591 80.391 25.6803 80.3666 25.9999C80.3939 26.3206 80.3558 26.6435 80.2548 26.9491C80.1537 27.2546 79.9917 27.5365 79.7786 27.7777C79.5654 28.0189 79.3056 28.2143 79.0148 28.3522C78.724 28.4901 78.4082 28.5676 78.0866 28.5799ZM102.477 17.4999H97.9966V29.9999H99.8666V25.2599H102.477C103.01 25.2982 103.545 25.2263 104.049 25.0487C104.553 24.871 105.014 24.5915 105.406 24.2274C105.797 23.8634 106.109 23.4227 106.322 22.9328C106.535 22.4428 106.645 21.9142 106.645 21.3799C106.645 20.8456 106.535 20.317 106.322 19.8271C106.109 19.3372 105.797 18.8965 105.406 18.5324C105.014 18.1684 104.553 17.8888 104.049 17.7112C103.545 17.5336 103.01 17.4616 102.477 17.4999ZM102.477 23.4999H99.8666V19.2399H102.517C102.798 19.2399 103.076 19.2953 103.336 19.4028C103.595 19.5104 103.831 19.668 104.03 19.8667C104.229 20.0654 104.386 20.3013 104.494 20.561C104.601 20.8206 104.657 21.0989 104.657 21.3799C104.657 21.661 104.601 21.9392 104.494 22.1989C104.386 22.4585 104.229 22.6944 104.03 22.8931C103.831 23.0918 103.595 23.2495 103.336 23.357C103.076 23.4646 102.798 23.5199 102.517 23.5199L102.477 23.4999ZM114.017 21.7099C113.336 21.6679 112.657 21.8265 112.065 22.1659C111.474 22.5054 110.994 23.0109 110.687 23.6199L112.337 24.3099C112.503 24.0093 112.754 23.7634 113.057 23.602C113.36 23.4405 113.704 23.3703 114.047 23.3999C114.284 23.3722 114.525 23.392 114.754 23.4582C114.984 23.5245 115.198 23.6358 115.384 23.7856C115.57 23.9355 115.725 24.1209 115.839 24.3311C115.952 24.5413 116.023 24.7721 116.047 25.0099V25.1299C115.445 24.8138 114.776 24.6491 114.097 24.6499C112.317 24.6499 110.497 25.6499 110.497 27.4699C110.514 27.8568 110.609 28.2361 110.776 28.5855C110.944 28.9348 111.179 29.247 111.469 29.5035C111.759 29.7601 112.098 29.9557 112.465 30.0787C112.832 30.2018 113.221 30.2498 113.607 30.2199C114.076 30.2459 114.544 30.1466 114.962 29.9322C115.38 29.7178 115.734 29.3961 115.987 28.9999H116.047V29.9999H117.847V25.1899C117.847 22.9999 116.187 21.7299 114.057 21.7299L114.017 21.7099ZM113.787 28.5599C113.177 28.5599 112.327 28.2499 112.327 27.4999C112.327 26.4999 113.387 26.1599 114.327 26.1599C114.921 26.1453 115.508 26.2903 116.027 26.5799C115.964 27.123 115.706 27.6249 115.302 27.9926C114.897 28.3604 114.373 28.569 113.827 28.5799L113.787 28.5599ZM124.407 21.9999L122.267 27.4199H122.207L119.987 21.9999H117.987L121.317 29.5799L119.417 33.7899H121.367L126.487 21.9999H124.407ZM107.607 29.9999H109.467V17.4999H107.607V29.9999Z" fill="white"/>
<path d="M21.3863 19.4199L10.7363 30.7199C10.8527 31.1473 11.0657 31.5423 11.359 31.8742C11.6522 32.2062 12.0179 32.4663 12.4277 32.6345C12.8375 32.8026 13.2804 32.8744 13.7223 32.8441C14.1642 32.8138 14.5933 32.6824 14.9763 32.4599L26.9763 25.5399L21.3863 19.4199Z" fill="#EA4335"/>
<path d="M32.1565 17.5L26.9765 14.5L21.1565 19.69L26.9965 25.54L32.1465 22.54C32.6043 22.2948 32.987 21.93 33.2538 21.4845C33.5206 21.0389 33.6615 20.5293 33.6615 20.01C33.6615 19.4907 33.5206 18.9811 33.2538 18.5355C32.987 18.09 32.6043 17.7252 32.1465 17.48L32.1565 17.5Z" fill="#FBBC04"/>
<path d="M10.7366 9.28027C10.6837 9.51648 10.6602 9.75831 10.6666 10.0003V30.0003C10.6683 30.2502 10.7019 30.4989 10.7666 30.7403L21.7666 19.7403L10.7366 9.28027Z" fill="#4285F4"/>
<path d="M21.4665 19.9996L26.9765 14.4896L14.9765 7.54965C14.5257 7.28165 14.011 7.14002 13.4865 7.13965C12.8539 7.14146 12.2393 7.35082 11.7372 7.73558C11.235 8.12035 10.8729 8.65927 10.7065 9.26965L21.4665 19.9996Z" fill="#34A853"/>
</svg>
