<svg width="21" height="20" viewBox="0 0 21 20" fill="none" xmlns="http://www.w3.org/2000/svg">
<path d="M20.6255 11.7189V19.0979H16.3475V12.2129C16.3475 10.4829 15.7285 9.30288 14.1805 9.30288C12.9985 9.30288 12.2945 10.0989 11.9855 10.8679C11.8725 11.1429 11.8435 11.5259 11.8435 11.9109V19.0979H7.5635C7.5635 19.0979 7.6215 7.43788 7.5635 6.22888H11.8435V8.05288L11.8155 8.09488H11.8435V8.05288C12.4115 7.17788 13.4265 5.92688 15.6995 5.92688C18.5145 5.92688 20.6255 7.76688 20.6255 11.7189ZM3.0875 0.0258789C1.6245 0.0258789 0.666504 0.985879 0.666504 2.24888C0.666504 3.48388 1.5965 4.47288 3.0315 4.47288H3.0595C4.5525 4.47288 5.4795 3.48388 5.4795 2.24888C5.4535 0.985879 4.5535 0.0258789 3.0885 0.0258789H3.0875ZM0.920504 19.0979H5.1985V6.22888H0.920504V19.0979Z" fill="#E2E8F0"/>
</svg>
