<svg width="21" height="17" viewBox="0 0 21 17" fill="none" xmlns="http://www.w3.org/2000/svg">
<path d="M20.6665 1.90692C19.9169 2.2343 19.123 2.44896 18.3105 2.54392C19.1633 2.04315 19.8046 1.24903 20.1145 0.30992C19.3065 0.780248 18.4252 1.11152 17.5075 1.28992C17.1211 0.885125 16.6562 0.563307 16.1413 0.344098C15.6263 0.124889 15.0721 0.0128852 14.5125 0.0149198C12.2465 0.0149198 10.4095 1.82492 10.4095 4.05492C10.4095 4.37092 10.4455 4.67992 10.5155 4.97492C8.89008 4.89761 7.29862 4.48233 5.84267 3.75556C4.38672 3.02879 3.09826 2.0065 2.0595 0.75392C1.69533 1.36832 1.50392 2.0697 1.5055 2.78392C1.5062 3.45189 1.67333 4.10915 1.99179 4.69631C2.31026 5.28348 2.77001 5.78203 3.3295 6.14692C2.67899 6.12592 2.04253 5.95225 1.4715 5.63992V5.68992C1.4715 7.64792 2.8865 9.28092 4.7615 9.65292C4.40911 9.74642 4.04609 9.79381 3.6815 9.79392C3.4165 9.79392 3.1595 9.76892 2.9085 9.71892C3.17659 10.5268 3.68961 11.2312 4.37632 11.7343C5.06303 12.2373 5.88935 12.514 6.7405 12.5259C5.28057 13.6505 3.48832 14.258 1.6455 14.2529C1.3135 14.2529 0.987504 14.2329 0.666504 14.1969C2.54776 15.3876 4.7291 16.0182 6.9555 16.0149C14.5025 16.0149 18.6285 9.85792 18.6285 4.51892L18.6145 3.99592C19.4194 3.42959 20.1146 2.72177 20.6665 1.90692Z" fill="#E2E8F0"/>
</svg>
