<svg width="25" height="25" viewBox="0 0 25 25" fill="none" xmlns="http://www.w3.org/2000/svg">
<path d="M4.752 10.2031C4.58416 10.8565 4.49949 11.5285 4.5 12.2031C4.5 12.8931 4.588 13.5631 4.752 14.2031H7.6C7.46518 12.8732 7.46518 11.5331 7.6 10.2031H4.752ZM5.57 8.20312H7.916C8.182 6.98612 8.566 5.89613 9.037 4.98913C7.58518 5.68854 6.37722 6.80836 5.57 8.20312ZM20.248 10.2031H17.4C17.5348 11.5331 17.5348 12.8732 17.4 14.2031H20.248C20.5847 12.891 20.5847 11.5152 20.248 10.2031ZM19.43 8.20312C18.6228 6.80836 17.4148 5.68854 15.963 4.98913C16.435 5.89613 16.818 6.98612 17.084 8.20312H19.43ZM9.612 10.2031C9.53708 10.8672 9.49968 11.5349 9.5 12.2031C9.5 12.8881 9.538 13.5581 9.612 14.2031H15.388C15.5386 12.874 15.5386 11.5322 15.388 10.2031H9.612ZM9.97 8.20312H15.03C14.848 7.45142 14.5855 6.72154 14.247 6.02612C13.619 4.77112 12.947 4.20312 12.5 4.20312C12.052 4.20312 11.381 4.77112 10.753 6.02612C10.438 6.65812 10.173 7.39313 9.97 8.20312ZM5.57 16.2031C6.37722 17.5979 7.58518 18.7177 9.037 19.4171C8.565 18.5101 8.182 17.4201 7.916 16.2031H5.57ZM19.43 16.2031H17.084C16.818 17.4201 16.434 18.5101 15.963 19.4171C17.4148 18.7177 18.6228 17.5979 19.43 16.2031ZM9.97 16.2031C10.173 17.0131 10.438 17.7481 10.753 18.3801C11.381 19.6351 12.053 20.2031 12.5 20.2031C12.948 20.2031 13.619 19.6351 14.247 18.3801C14.562 17.7481 14.827 17.0131 15.03 16.2031H9.97ZM12.5 22.2031C6.977 22.2031 2.5 17.7261 2.5 12.2031C2.5 6.68013 6.977 2.20312 12.5 2.20312C18.023 2.20312 22.5 6.68013 22.5 12.2031C22.5 17.7261 18.023 22.2031 12.5 22.2031Z" fill="#E2E8F0"/>
</svg>
