<svg width="31" height="33" viewBox="0 0 31 33" fill="none" xmlns="http://www.w3.org/2000/svg">
<path fill-rule="evenodd" clip-rule="evenodd" d="M0 16.5519L0.001544 16.3915L0.00472794 16.2311L0.00956001 16.0707L0.016032 15.9103L0.02416 15.7499L0.0339279 15.5895L0.045352 15.4292L0.058416 15.2689L0.0731359 15.1087L0.0895041 14.9484L0.10752 14.7884L0.127176 14.6284L0.148488 14.4686L0.171448 14.3089L0.196048 14.1494L0.222296 13.9901L0.250192 13.8309L0.27972 13.672L0.310896 13.5133L0.343712 13.3548L0.378168 13.1966L0.414248 13.0387L0.451976 12.8811L0.49132 12.7237L0.532304 12.5667L0.574904 12.41L0.619136 12.2537L0.664984 12.0978L0.712448 11.9423L0.76152 11.7871L0.812208 11.6324L0.864504 11.4781L0.9184 11.3243L0.973888 11.1709L1.03098 11.018L1.08965 10.8656L1.14991 10.7138L1.21175 10.5624L1.27517 10.4117L1.34015 10.2615L1.4067 10.1118L1.47482 9.96273L1.54448 9.81433L1.6157 9.66649L1.68846 9.51929L1.76275 9.37281L1.83858 9.22697L1.91593 9.08177L1.99479 8.93737L2.07517 8.79361L2.15706 8.65057L2.24043 8.50833L2.3253 8.36681L2.41166 8.22609L2.49949 8.08617L2.58878 7.94705L2.67954 7.80881L2.77176 7.67129L2.86542 7.53473L2.96051 7.39897L3.05703 7.26409L3.15497 7.13017L3.25432 6.99705L3.35507 6.86497L3.45722 6.73377L3.56075 6.60349L3.66566 6.47421L3.77193 6.3459L3.87955 6.21859L3.98853 6.09228L4.09884 5.96699L4.21047 5.84274L4.32342 5.71953L4.43769 5.59739L4.55324 5.47632L4.67008 5.35633L4.78819 5.23745L4.90757 5.11967L5.0282 5.00302L5.15007 4.88751L5.27318 4.77316L5.3975 4.65996L5.52302 4.54794L5.64975 4.43711L5.77766 4.32747L5.90674 4.21905L6.03698 4.11186L6.16838 4.0059L6.3009 3.90119L6.43456 3.79773L6.56928 3.69556L6.7052 3.59465L6.84216 3.49505L6.98016 3.39676L7.1192 3.29977L7.25936 3.20412L7.40048 3.10979L7.54264 3.01682L7.68584 2.92521L7.83008 2.83497L7.9752 2.7461L8.12136 2.65862L8.2684 2.57255L8.4164 2.48789L8.56536 2.40464L8.7152 2.32282L8.86592 2.24244L9.01752 2.16351L9.17 2.08603L9.32336 2.01002L9.47752 1.93549L9.63256 1.86243L9.78832 1.79087L9.94496 1.72081L10.1023 1.65226L10.2605 1.58523L10.4194 1.51973L10.579 1.45575L10.7393 1.39331L10.9003 1.33243L11.062 1.27309L11.2244 1.21533L11.3874 1.15913L11.5511 1.10451L11.7154 1.05148L11.8802 1.00003L12.0458 0.950181L12.2118 0.901941L12.3784 0.855309L12.5456 0.810285L12.7133 0.766885L12.8814 0.725117L13.0501 0.684989L13.2193 0.646485L13.3889 0.609637L13.5589 0.574429L13.7294 0.540877L13.9002 0.508989L14.0715 0.478757L14.2432 0.450197L14.4152 0.423309L14.5875 0.398093L14.7602 0.374565L14.9331 0.352717L15.1064 0.332557L15.2799 0.314077L15.4537 0.297309L15.6277 0.282229L15.8019 0.268845L15.9763 0.257173L16.9142 0.203613L16.9678 4.72255L16.9984 4.7222L17.1279 4.72201L17.2574 4.7231L17.387 4.72546L17.5166 4.7291L17.6462 4.73401L17.7759 4.74019L17.9056 4.74765L18.0353 4.7564L18.1649 4.76641L18.2946 4.7777L18.4241 4.79028L18.5536 4.80413L18.683 4.81926L18.8123 4.83567L18.9415 4.85336L19.0706 4.87232L19.1996 4.89257L19.3285 4.91409L19.4571 4.93688L19.5857 4.96095L19.714 4.98629L19.8421 5.01292L19.9701 5.04081L20.0978 5.06997L20.2252 5.10039L20.3525 5.13209L20.4794 5.16505L20.6061 5.19928L20.7325 5.23477L20.8586 5.27151L20.9844 5.30951L21.1098 5.34877L21.235 5.38928L21.3598 5.43104L21.4842 5.47404L21.6082 5.51829L21.7318 5.56377L21.855 5.61049L21.9778 5.65844L22.1002 5.70764L22.2222 5.75805L22.3436 5.80969L22.4646 5.86254L22.5852 5.91661L22.7052 5.97189L22.8247 6.02837L22.9438 6.08606L23.0622 6.14495L23.1802 6.20503L23.2975 6.26629L23.4143 6.32874L23.5306 6.39237L23.6462 6.45717L23.7612 6.52314L23.8756 6.59027L23.9894 6.65857L24.1025 6.72801L24.215 6.79857L24.3267 6.87033L24.4378 6.94313L24.5482 7.01713L24.658 7.09225L24.767 7.16841L24.8753 7.24577L24.9828 7.32417L25.0895 7.40369L25.1956 7.48433L25.3008 7.56601L25.4053 7.64881L25.5089 7.73257L25.6118 7.81745L25.7138 7.90345L25.815 7.99041L25.9154 8.07841L26.0149 8.16745L26.1134 8.25753L26.2112 8.34865L26.3081 8.44073L26.4041 8.53377L26.4991 8.62785L26.5933 8.72289L26.6865 8.81897L26.7788 8.91593L26.8701 9.01385L26.9605 9.11273L27.0498 9.21257L27.1382 9.31329L27.2257 9.41497L27.3121 9.51753L27.3975 9.62097L27.4819 9.72537L27.5653 9.83057L27.6476 9.93665L27.7289 10.0436L27.8091 10.1515L27.8882 10.2601L27.9663 10.3696L28.0433 10.4799L28.1192 10.591L28.194 10.7029L28.2677 10.8156L28.3402 10.9291L28.4116 11.0434L28.4819 11.1583L28.551 11.2741L28.619 11.3906L28.6858 11.5078L28.7515 11.6257L28.816 11.7443L28.8793 11.8636L28.9414 11.9836L29.0022 12.1043L29.0619 12.2255L29.1204 12.3475L29.1777 12.4701L29.2337 12.5933L29.2885 12.7171L29.342 12.8415L29.3942 12.9666L29.4453 13.0921L29.495 13.2183L29.5435 13.3449L29.5907 13.4722L29.6366 13.5999L29.6813 13.7282L29.7246 13.8569L29.7667 13.9862L29.8074 14.1159L29.8469 14.246L29.885 14.3767L29.9218 14.5077L29.9572 14.6392L29.9914 14.7711L30.0241 14.9034L30.0556 15.0361L30.0857 15.1691L30.1144 15.3026L30.1418 15.4363L30.1678 15.5704L30.1925 15.7048L30.2158 15.8395L30.2378 15.9745L30.2583 16.1098L30.2775 16.2454L30.2953 16.3811L30.3117 16.5172L30.3267 16.6535L30.3403 16.7899L30.3526 16.9266L30.3634 17.0635L30.3729 17.2005L30.3809 17.3377L30.3875 17.475L30.3928 17.6125L30.3966 17.75L30.399 17.8877L30.4 18.0255L30.3996 18.1633L30.3978 18.3012L30.3945 18.4392L30.3898 18.5771L30.3838 18.7151L30.3763 18.8531L30.3674 18.9911L30.357 19.1291L30.3453 19.2671L30.3321 19.405L30.3175 19.5428L30.3014 19.6805L30.284 19.8182L30.2652 19.9557L30.2449 20.0931L30.2232 20.2304L30.2001 20.3675L30.1755 20.5045L30.1496 20.6413L30.1222 20.7779L30.0934 20.9143L30.0632 21.0505L30.0316 21.1865L29.9986 21.3222L29.9642 21.4576L29.9283 21.5927L29.8911 21.7276L29.8525 21.8622L29.8125 21.9964L29.771 22.1304L29.7282 22.2639L29.684 22.3972L29.6384 22.53L29.5914 22.6625L29.543 22.7946L29.4933 22.9262L29.4422 23.0574L29.3897 23.1882L29.3358 23.3185L29.2806 23.4483L29.2241 23.5778L29.1662 23.7066L29.1069 23.835L29.0462 23.9628L28.9843 24.0901L28.921 24.2169L28.8564 24.3431L28.7904 24.4687L28.7232 24.5937L28.6546 24.7182L28.5847 24.8419L28.5135 24.9651L28.441 25.0877L28.3673 25.2095L28.2922 25.3308L28.2158 25.4513L28.1382 25.5711L28.0594 25.6903L27.9793 25.8087L27.8979 25.9263L27.8153 26.0433L27.7314 26.1595L27.6463 26.2749L27.56 26.3895L27.4725 26.5034L27.3838 26.6163L27.2938 26.7286L27.2027 26.8399L27.1104 26.9504L27.0169 27.0601L26.9222 27.1689L26.8264 27.2768L26.7294 27.3839L26.6314 27.49L26.5322 27.5952L26.4318 27.6995L26.3303 27.8028L26.2277 27.9052L26.124 28.0067L26.0193 28.1071L25.9134 28.2067L25.8066 28.3051L25.6986 28.4027L25.5895 28.4991L25.4795 28.5945L25.3684 28.689L25.2563 28.7823L25.1432 28.8746L25.0291 28.9659L24.914 29.056L24.7979 29.1451L24.6809 29.233L24.5629 29.3199L24.444 29.4056L24.3241 29.4902L24.2033 29.5737L24.0816 29.656L23.959 29.7371L23.8355 29.8171L23.7112 29.896L23.586 29.9736L23.4599 30.0501L23.333 30.1253L23.2052 30.1994L23.0767 30.2722L22.9473 30.3437L22.8172 30.4141L22.6862 30.4831L22.5546 30.551L22.4221 30.6176L22.2889 30.6829L22.155 30.7469L22.0203 30.8097L21.885 30.8711L21.749 30.9313L21.6122 30.9901L21.4749 31.0476L21.3369 31.1039L21.1982 31.1587L21.059 31.2123L20.919 31.2645L20.7786 31.3153L20.6374 31.3648L20.4958 31.4129L20.3537 31.4597L20.2109 31.5051L20.0676 31.5491L19.9238 31.5917L19.7796 31.6329L19.6348 31.6727L19.4896 31.7112L19.3438 31.7482L19.1978 31.7838L19.0512 31.818L18.9042 31.8507L18.7568 31.8821L18.609 31.912L18.4609 31.9405L18.3124 31.9675L18.1636 31.9931L18.0144 32.0172L17.865 32.0399L17.7151 32.0611L17.5651 32.0809L17.4148 32.0992L17.2642 32.116L17.1134 32.1314L16.9623 32.1453L16.8111 32.1577L16.6597 32.1687L16.5081 32.1781L16.3562 32.1861L16.2043 32.1926L16.0523 32.1975L15.9001 32.2011L15.7478 32.2031L15.5954 32.2036L15.443 32.2027L15.2906 32.2002L15.138 32.1963L14.9854 32.1907L14.8329 32.1838L14.6803 32.1754L14.5278 32.1654L14.3753 32.1539L14.2229 32.141L14.0705 32.1265L13.9182 32.1106L13.766 32.0931L13.6139 32.0742L13.4619 32.0537L13.3102 32.0317L13.1585 32.0083L13.007 31.9833L12.8558 31.9569L12.7046 31.9289L12.5538 31.8995L12.4032 31.8686L12.2529 31.8361L12.1027 31.8022L11.953 31.7668L11.8034 31.7299L11.6542 31.6915L11.5054 31.6517L11.3569 31.6104L11.2087 31.5676L11.0609 31.5234L10.9135 31.4776L10.7666 31.4304L10.62 31.3818L10.4738 31.3316L10.3282 31.28L10.183 31.2271L10.0382 31.1726L9.894 31.1167L9.75032 31.0593L9.60712 31.0005L9.46448 30.9403L9.3224 30.8787L9.18088 30.8156L9.03992 30.7511L8.8996 30.6852L8.75992 30.6179L8.62088 30.5492L8.4824 30.4791L8.34464 30.4077L8.2076 30.3348L8.07112 30.2607L7.93544 30.1851L7.80048 30.1081L7.66624 30.0298L7.53272 29.9501L7.4 29.8691L7.268 29.7867L7.1368 29.7031L7.00648 29.6181L6.87688 29.5319L6.74816 29.4442L6.62032 29.3553L6.49328 29.2651L6.36713 29.1736L6.24186 29.0809L6.1175 28.9868L5.99405 28.8915L5.87152 28.7951L5.74993 28.6972L5.6293 28.5983L5.50962 28.498L5.39093 28.3966L5.27322 28.2939L5.15653 28.19L5.04085 28.085L4.9262 27.9788L4.81258 27.8714L4.70003 27.7629L4.58854 27.6531L4.47813 27.5423L4.36881 27.4304L4.26059 27.3173L4.15349 27.2031L4.04751 27.0879L3.94268 26.9715L3.83899 26.854L3.73646 26.7355L3.63511 26.6159L3.53494 26.4954L3.43598 26.3737L3.33821 26.2511L3.24166 26.1274L3.14634 26.0027L3.05226 25.8771L2.95943 25.7504L2.86786 25.6228L2.77756 25.4943L2.68854 25.3648L2.60082 25.2344L2.51439 25.1031L2.42928 24.9709L2.34548 24.8378L2.26302 24.7038L2.1819 24.569L2.10212 24.4332L2.02371 24.2967L1.94666 24.1594L1.87099 24.0212L1.79671 23.8822L1.72382 23.7424L1.65234 23.6019L1.58226 23.4607L1.51361 23.3187L1.44638 23.1759L1.38059 23.0324L1.31625 22.8882L1.25335 22.7434L1.19192 22.5978L1.13196 22.4516L1.07346 22.3047L1.01646 22.1572L0.960944 22.0091L0.90692 21.8604L0.8544 21.7111L0.803384 21.5613L0.753888 21.4108L0.70592 21.2599L0.659472 21.1083L0.614568 20.9563L0.5712 20.8038L0.529376 20.6507L0.489104 20.4973L0.450392 20.3434L0.41324 20.189L0.377664 20.0342L0.343656 19.8789L0.311224 19.7233L0.280376 19.5673L0.251112 19.411L0.22344 19.2543L0.197368 19.0972L0.172888 18.9399L0.150016 18.7822L0.128752 18.6242L0.109104 18.4659L0.0910641 18.3075L0.0746401 18.1487L0.05984 17.9899L0.046664 17.8307L0.035112 17.6713L0.0251921 17.5118L0.0169041 17.3521L0.010248 17.1923L0.00522404 17.0323L0.00184002 16.8723L0.000103951 16.7121L0 16.5519ZM15.5025 4.81721L15.466 1.73705L15.4314 1.74039L15.2723 1.75732L15.1137 1.77578L14.9551 1.79581L14.7972 1.81733L14.6394 1.84042L14.4818 1.86505L14.3247 1.8912L14.1678 1.9189L14.0116 1.94805L13.8552 1.97882L13.6999 2.01098L13.5444 2.04477L13.3897 2.07998L13.2351 2.11677L13.0813 2.15496L12.9278 2.19469L12.7748 2.23589L12.6222 2.27859L12.4704 2.32272L12.3188 2.36837L12.168 2.41543L12.0176 2.46399L11.868 2.51389L11.7186 2.56537L11.5701 2.61823L11.4222 2.67249L11.2748 2.72822L11.1282 2.78532L10.9823 2.84379L10.8369 2.90377L10.6922 2.9651L10.5482 3.02784L10.405 3.09189L10.2625 3.15734L10.1208 3.22411L9.9796 3.29235L9.83944 3.36184L9.7 3.43268L9.56136 3.50485L9.42352 3.57837L9.28664 3.65313L9.15032 3.72929L9.01488 3.80676L8.88064 3.88533L8.7468 3.96545L8.61424 4.04662L8.48256 4.12906L8.35152 4.21285L8.22152 4.29787L8.09248 4.38413L7.96464 4.4714L7.83728 4.56021L7.7112 4.64998L7.58608 4.74099L7.46184 4.83325L7.33872 4.9266L7.21672 5.02107L7.09544 5.11687L6.97552 5.21358L6.85648 5.31157L6.73856 5.41061L6.62168 5.51081L6.506 5.61197L6.39118 5.71441L6.27768 5.81777L6.16514 5.92231L6.05391 6.02773L5.9437 6.1343L5.8347 6.24183L5.72682 6.35042L5.61999 6.46013L5.51456 6.5706L5.41031 6.68201L5.30699 6.79473L5.2051 6.90817L5.10446 7.02241L5.00486 7.13785L4.9067 7.25401L4.80962 7.37121L4.71386 7.48921L4.61934 7.60817L4.52606 7.72793L4.43416 7.84849L4.34346 7.96993L4.254 8.09233L4.16598 8.21529L4.07914 8.33929L3.99369 8.46393L3.90955 8.58937L3.82668 8.71561L3.74521 8.84257L3.66507 8.97017L3.58628 9.09857L3.5089 9.22761L3.43278 9.35745L3.35804 9.48801L3.28477 9.61905L3.21281 9.75081L3.14222 9.88329L3.07307 10.0163L3.00528 10.15L2.93894 10.2842L2.87399 10.419L2.81047 10.5543L2.74834 10.6903L2.68767 10.8267L2.62838 10.9638L2.57054 11.1013L2.51418 11.2392L2.45923 11.3777L2.40572 11.5167L2.35368 11.656L2.30308 11.7959L2.25398 11.936L2.20629 12.0767L2.16008 12.2178L2.11535 12.3592L2.0721 12.5009L2.0303 12.6431L1.99 12.7855L1.95118 12.9283L1.91382 13.0714L1.87796 13.2148L1.84359 13.3584L1.81071 13.5023L1.77932 13.6465L1.74942 13.7909L1.72102 13.9355L1.69411 14.0803L1.6687 14.2252L1.64479 14.3704L1.62238 14.5157L1.60147 14.6611L1.58206 14.8067L1.56415 14.9524L1.54774 15.0982L1.53284 15.2441L1.51944 15.39L1.50754 15.5359L1.49714 15.682L1.48824 15.8281L1.48084 15.9741L1.47494 16.1202L1.47054 16.2662L1.46765 16.4122L1.46624 16.5581L1.46634 16.704L1.46792 16.8498L1.471 16.9955L1.47557 17.1411L1.48162 17.2866L1.48918 17.4319L1.4982 17.5771L1.50871 17.7221L1.5207 17.8669L1.53418 18.0115L1.54911 18.156L1.56553 18.3002L1.58341 18.4442L1.60275 18.5879L1.62356 18.7313L1.64583 18.8745L1.66954 19.0173L1.69472 19.1599L1.72134 19.3021L1.74939 19.4439L1.77889 19.5855L1.80982 19.7267L1.84218 19.8675L1.87596 20.0079L1.91116 20.1479L1.94778 20.2875L1.9858 20.4265L2.02524 20.5652L2.06607 20.7035L2.1083 20.8412L2.15191 20.9785L2.1969 21.1152L2.24326 21.2515L2.29101 21.3871L2.34011 21.5223L2.39056 21.6569L2.44239 21.791L2.49554 21.9244L2.55002 22.0573L2.60586 22.1895L2.663 22.3211L2.72147 22.4522L2.78125 22.5826L2.84233 22.7123L2.9047 22.8413L2.96836 22.9696L3.0333 23.0973L3.09951 23.2243L3.16698 23.3505L3.23572 23.476L3.3057 23.6007L3.37691 23.7247L3.44936 23.848L3.52304 23.9704L3.5979 24.0921L3.67401 24.213L3.75128 24.333L3.82976 24.4523L3.90942 24.5707L3.99022 24.6882L4.07219 24.8049L4.15534 24.9207L4.23959 25.0357L4.32501 25.1498L4.4115 25.2629L4.49916 25.3751L4.58786 25.4864L4.67769 25.5968L4.76862 25.7063L4.86056 25.8148L4.9536 25.9223L5.04767 26.0289L5.14282 26.1345L5.23896 26.2391L5.3361 26.3427L5.43428 26.4452L5.53344 26.5468L5.63362 26.6474L5.73474 26.7468L5.83685 26.8453L5.93987 26.9427L6.04385 27.0391L6.14878 27.1343L6.25462 27.2285L6.3613 27.3215L6.46896 27.4135L6.57752 27.5044L6.6868 27.5942L6.79712 27.6829L6.90816 27.7703L7.02008 27.8567L7.1328 27.942L7.2464 28.0261L7.36072 28.109L7.47584 28.1907L7.59168 28.2713L7.7084 28.3507L7.82576 28.4289L7.944 28.5059L8.0628 28.5818L8.1824 28.6563L8.30272 28.7298L8.4236 28.8019L8.54528 28.8729L8.66752 28.9426L8.79048 29.0111L8.914 29.0783L9.03824 29.1443L9.16296 29.209L9.28832 29.2725L9.41432 29.3347L9.54088 29.3956L9.66792 29.4553L9.79552 29.5137L9.9236 29.5707L10.0523 29.6266L10.1814 29.6811L10.3111 29.7343L10.4412 29.7863L10.5718 29.8368L10.7028 29.8862L10.8342 29.9342L10.966 29.9808L11.0983 30.0262L11.231 30.0703L11.364 30.113L11.4973 30.1543L11.6311 30.1944L11.7651 30.2331L11.8995 30.2705L12.0342 30.3066L12.1692 30.3413L12.3045 30.3747L12.4399 30.4067L12.5758 30.4374L12.7118 30.4667L12.8479 30.4947L12.9844 30.5213L13.121 30.5466L13.2578 30.5705L13.3948 30.5931L13.5319 30.6143L13.6692 30.6341L13.8066 30.6526L13.9441 30.6698L14.0817 30.6855L14.2194 30.6999L14.3571 30.7131L14.495 30.7247L14.6328 30.7351L14.7706 30.7441L14.9086 30.7518L15.0464 30.758L15.1842 30.763L15.3221 30.7666L15.4599 30.7687L15.5976 30.7696L15.7353 30.7691L15.8729 30.7673L16.0103 30.7642L16.1477 30.7596L16.285 30.7538L16.4221 30.7466L16.559 30.738L16.6958 30.7282L16.8324 30.717L16.9688 30.7044L17.105 30.6905L17.241 30.6753L17.3766 30.6588L17.5122 30.641L17.6474 30.6218L17.7823 30.6013L17.917 30.5795L18.0514 30.5564L18.1854 30.532L18.3191 30.5063L18.4525 30.4794L18.5855 30.4511L18.7182 30.4215L18.8504 30.3907L18.9823 30.3585L19.1138 30.3251L19.2448 30.2904L19.3754 30.2545L19.5056 30.2173L19.6353 30.1788L19.7646 30.1391L19.8933 30.0983L20.0216 30.056L20.1494 30.0127L20.2765 29.968L20.4033 29.9221L20.5294 29.8751L20.655 29.8267L20.7801 29.7773L20.9045 29.7267L21.0283 29.6747L21.1516 29.6217L21.2742 29.5675L21.3962 29.5121L21.5176 29.4555L21.6383 29.3978L21.7583 29.339L21.8778 29.2789L21.9964 29.2178L22.1144 29.1555L22.2318 29.0921L22.3482 29.0276L22.4641 28.962L22.5791 28.8954L22.6936 28.8275L22.807 28.7587L22.92 28.6887L23.0319 28.6178L23.1431 28.5457L23.2536 28.4726L23.3633 28.3983L23.4719 28.3233L23.5798 28.2471L23.687 28.1699L23.7932 28.0917L23.8986 28.0124L24.003 27.9323L24.1068 27.8511L24.2094 27.769L24.3112 27.6859L24.4122 27.6019L24.5122 27.5168L24.6112 27.431L24.7094 27.3441L24.8065 27.2564L24.9027 27.1678L24.998 27.0783L25.0922 26.9879L25.1855 26.8966L25.2778 26.8044L25.3691 26.7115L25.4594 26.6176L25.5486 26.5231L25.6368 26.4277L25.7242 26.3312L25.8102 26.2343L25.8954 26.1363L25.9794 26.0378L26.0625 25.9383L26.1444 25.8383L26.2252 25.7374L26.305 25.6357L26.3837 25.5335L26.4614 25.4303L26.5378 25.3267L26.6132 25.2222L26.6876 25.117L26.7606 25.0114L26.8326 24.9049L26.9034 24.7979L26.9732 24.6902L27.0419 24.5818L27.1093 24.473L27.1755 24.3635L27.2407 24.2532L27.3046 24.1427L27.3674 24.0315L27.429 23.9196L27.4894 23.8075L27.5486 23.6945L27.6067 23.5811L27.6634 23.4675L27.7191 23.3531L27.7736 23.2382L27.8268 23.123L27.8788 23.0073L27.9296 22.8911L27.9791 22.7747L28.0275 22.6575L28.0746 22.5401L28.1205 22.4226L28.1651 22.3042L28.2085 22.1858L28.2507 22.0668L28.2917 21.9476L28.3314 21.828L28.3697 21.7084L28.407 21.5879L28.4428 21.4676L28.4774 21.3469L28.5109 21.226L28.543 21.1047L28.5738 20.9833L28.6035 20.8615L28.6318 20.7395L28.659 20.6175L28.6848 20.4951L28.7093 20.3727L28.7326 20.2499L28.7546 20.1273L28.7753 20.0043L28.7947 19.8811L28.8129 19.758L28.8298 19.6347L28.8454 19.5115L28.8598 19.3877L28.8729 19.2644L28.8847 19.1407L28.8952 19.0173L28.9045 18.8935L28.9125 18.7701L28.9192 18.6463L28.9246 18.5225L28.9288 18.399L28.9318 18.2757L28.9334 18.1519L28.9338 18.0284L28.9329 17.9051L28.9307 17.7818L28.9273 17.6585L28.9226 17.5357L28.9166 17.4124L28.9094 17.2897L28.901 17.167L28.8913 17.0447L28.8803 16.9221L28.8682 16.8001L28.8547 16.678L28.84 16.5563L28.8241 16.4347L28.807 16.3135L28.7885 16.1923L28.7689 16.0715L28.7481 15.9512L28.726 15.8308L28.7026 15.7108L28.6782 15.5913L28.6524 15.4717L28.6256 15.353L28.5974 15.2341L28.5682 15.116L28.5375 14.9978L28.5058 14.8804L28.473 14.7632L28.4389 14.6463L28.4037 14.53L28.3673 14.4142L28.3296 14.2984L28.291 14.1835L28.251 14.0687L28.21 13.9547L28.1678 13.8408L28.1245 13.7278L28.0799 13.6149L28.0343 13.5027L27.9877 13.3911L27.9399 13.2801L27.8908 13.1692L27.841 13.0594L27.7897 12.9496L27.7375 12.8409L27.6842 12.7326L27.6298 12.6247L27.5744 12.5176L27.5178 12.4111L27.4602 12.305L27.4018 12.1999L27.342 12.0951L27.2814 11.9912L27.2195 11.8878L27.157 11.7854L27.093 11.6832L27.0284 11.582L26.9626 11.4813L26.8958 11.3815L26.8282 11.2825L26.7594 11.1839L26.6898 11.0863L26.6192 10.9893L26.5476 10.8932L26.4751 10.7977L26.4017 10.7031L26.3274 10.6092L26.2521 10.5162L26.1759 10.4239L26.0988 10.3324L26.0208 10.2418L25.942 10.1519L25.8624 10.063L25.7818 9.97481L25.7002 9.88737L25.6182 9.80113L25.5349 9.71537L25.4511 9.63081L25.3664 9.54689L25.281 9.46401L25.1944 9.38177L25.1075 9.30081L25.0195 9.22049L24.9308 9.14113L24.8416 9.06281L24.7515 8.98537L24.6604 8.90865L24.5688 8.83305L24.4766 8.75841L24.3835 8.68473L24.2898 8.61193L24.1955 8.54033L24.1002 8.46929L24.0046 8.39961L23.9082 8.33081L23.8111 8.26289L23.7136 8.19609L23.615 8.13009L23.5165 8.06545L23.4168 8.00153L23.3168 7.93873L23.216 7.87689L23.1148 7.81609L23.013 7.75641L22.9109 7.69785L22.8078 7.64001L22.7046 7.58353L22.6006 7.52793L22.4962 7.47345L22.3914 7.42009L22.286 7.36769L22.1802 7.31633L22.0739 7.26617L21.9671 7.21697L21.8601 7.16897L21.7525 7.12193L21.641 7.07457L21.5362 7.03129L21.4272 6.98745L21.3183 6.94497L21.2086 6.90329L21.0988 6.86297L20.9886 6.82361L20.8781 6.78545L20.7671 6.74825L20.6561 6.71233L20.5446 6.67745L20.4328 6.64369L20.321 6.61113L20.2086 6.57958L20.0959 6.54912L19.9834 6.51989L19.8706 6.49178L19.757 6.4647L19.6439 6.43887L19.5302 6.41407L19.4166 6.39047L19.3025 6.36794L19.1886 6.3466L19.0743 6.32636L18.9602 6.30729L18.8454 6.28929L18.731 6.27249L18.6164 6.25679L18.5016 6.24222L18.3868 6.2288L18.272 6.21653L18.1571 6.20537L18.0422 6.19536L17.9271 6.18647L17.812 6.17871L17.6972 6.1721L17.5823 6.16662L17.467 6.16226L17.3524 6.15905L17.2375 6.15695L17.1227 6.15599L17.0078 6.15615L16.9847 6.15641L17.021 9.21417L17.0862 9.21385L17.1701 9.21433L17.254 9.21561L17.338 9.21777L17.4221 9.22073L17.5062 9.22457L17.5902 9.22921L17.6744 9.23465L17.7586 9.24097L17.8427 9.24809L17.9269 9.25609L18.011 9.26489L18.0951 9.27457L18.1792 9.28505L18.2632 9.29633L18.3472 9.30857L18.4311 9.32153L18.515 9.33537L18.5988 9.35009L18.6825 9.36561L18.7661 9.38201L18.8496 9.39921L18.933 9.41721L19.0163 9.43609L19.0994 9.45585L19.1825 9.47641L19.2653 9.49777L19.348 9.52001L19.4306 9.54305L19.513 9.56697L19.5952 9.59169L19.6772 9.61721L19.759 9.64361L19.8406 9.67081L19.922 9.69889L20.0031 9.72777L20.0841 9.75745L20.1647 9.78793L20.2452 9.81929L20.3254 9.85145L20.4053 9.88441L20.4849 9.91825L20.5642 9.95281L20.6433 9.98825L20.722 10.0244L20.8004 10.0615L20.8786 10.0993L20.9563 10.1379L21.0338 10.1774L21.1109 10.2176L21.1876 10.2586L21.264 10.3004L21.34 10.343L21.4156 10.3863L21.4909 10.4305L21.5658 10.4755L21.6402 10.5211L21.7142 10.5676L21.7878 10.6149L21.861 10.6629L21.9337 10.7116L22.006 10.7611L22.0778 10.8115L22.1492 10.8624L22.2201 10.9142L22.2905 10.9667L22.3605 11.0199L22.4298 11.0739L22.4988 11.1287L22.5672 11.184L22.6351 11.2402L22.7025 11.2971L22.7694 11.3546L22.8357 11.4128L22.9014 11.4718L22.9666 11.5315L23.0312 11.5918L23.0953 11.6528L23.1587 11.7145L23.2216 11.7769L23.2839 11.8399L23.3456 11.9037L23.4067 11.968L23.4671 12.0331L23.527 12.0987L23.5862 12.1651L23.6447 12.2319L23.7026 12.2995L23.7599 12.3677L23.8166 12.4365L23.8725 12.5059L23.9278 12.5759L23.9823 12.6466L24.0362 12.7178L24.0894 12.7896L24.1419 12.8619L24.1938 12.9349L24.2448 13.0084L24.2952 13.0825L24.3448 13.1571L24.3937 13.2323L24.4418 13.308L24.4893 13.3843L24.536 13.461L24.5819 13.5383L24.627 13.6161L24.6714 13.6943L24.715 13.7731L24.7578 13.8524L24.7999 13.9322L24.8412 14.0124L24.8816 14.0931L24.9213 14.1743L24.9602 14.2559L24.9982 14.3379L25.0354 14.4205L25.0718 14.5034L25.1074 14.5867L25.1421 14.6705L25.176 14.7547L25.209 14.8392L25.2412 14.9241L25.2726 15.0095L25.303 15.0951L25.3327 15.1812L25.3615 15.2676L25.3894 15.3544L25.4164 15.4415L25.4426 15.5289L25.4678 15.6167L25.4922 15.7047L25.5157 15.7931L25.5383 15.8818L25.56 15.9707L25.5808 16.0599L25.6007 16.1495L25.6197 16.2392L25.6378 16.3292L25.6549 16.4195L25.6711 16.51L25.6865 16.6007L25.7009 16.6916L25.7143 16.7828L25.7269 16.8741L25.7385 16.9656L25.7492 17.0574L25.7589 17.1493L25.7677 17.2413L25.7756 17.3335L25.7825 17.4259L25.7885 17.5183L25.7934 17.6109L25.7975 17.7036L25.8006 17.7965L25.8028 17.8894L25.804 17.9824L25.8042 18.0755L25.8035 18.1687L25.8018 18.2619L25.7992 18.3551L25.7956 18.4485L25.791 18.5418L25.7855 18.6351L25.779 18.7286L25.7716 18.8219L25.7631 18.9153L25.7538 19.0087L25.7434 19.1019L25.7321 19.1953L25.7198 19.2885L25.7065 19.3817L25.6922 19.4748L25.677 19.5679L25.6609 19.6608L25.6437 19.7537L25.6256 19.8465L25.6065 19.9391L25.5864 20.0317L25.5654 20.1241L25.5434 20.2163L25.5205 20.3084L25.4966 20.4004L25.4717 20.4922L25.4458 20.5838L25.419 20.6751L25.3913 20.7663L25.3626 20.8574L25.3328 20.9482L25.3022 21.0387L25.2706 21.129L25.2381 21.2191L25.2046 21.3088L25.1701 21.3983L25.1347 21.4876L25.0984 21.5766L25.0611 21.6653L25.0229 21.7536L24.9838 21.8417L24.9437 21.9295L24.9026 22.0168L24.8607 22.1039L24.8178 22.1906L24.774 22.2769L24.7293 22.3629L24.6837 22.4484L24.6371 22.5336L24.5897 22.6184L24.5414 22.7028L24.4921 22.7867L24.4419 22.8703L24.3909 22.9534L24.339 23.0361L24.2861 23.1183L24.2324 23.2L24.1778 23.2812L24.1223 23.362L24.066 23.4423L24.0088 23.5221L23.9507 23.6014L23.8918 23.6802L23.8321 23.7584L23.7714 23.8361L23.71 23.9132L23.6477 23.9899L23.5846 24.0659L23.5206 24.1414L23.4558 24.2163L23.3902 24.2906L23.3238 24.3643L23.2566 24.4374L23.1886 24.5099L23.1199 24.5818L23.0503 24.653L22.98 24.7236L22.9088 24.7935L22.837 24.8629L22.7642 24.9315L22.6909 24.9995L22.6167 25.0668L22.5418 25.1334L22.4662 25.1993L22.3898 25.2646L22.3127 25.3291L22.2349 25.3929L22.1564 25.4559L22.0771 25.5183L21.9972 25.5799L21.9166 25.6407L21.8354 25.7008L21.7534 25.7602L21.6708 25.8188L21.5875 25.8766L21.5036 25.9336L21.419 25.9899L21.3338 26.0453L21.2479 26.0999L21.1615 26.1538L21.0744 26.2067L20.9868 26.259L20.8985 26.3103L20.8097 26.3608L20.7202 26.4105L20.6302 26.4594L20.5397 26.5074L20.4486 26.5545L20.3569 26.6007L20.2647 26.6461L20.172 26.6907L20.0787 26.7343L19.985 26.777L19.8907 26.8188L19.796 26.8598L19.7007 26.8998L19.605 26.9389L19.5089 26.9771L19.4122 27.0144L19.3152 27.0508L19.2177 27.0863L19.1198 27.1207L19.0214 27.1543L18.9226 27.1869L18.8234 27.2185L18.7239 27.2492L18.624 27.279L18.5237 27.3077L18.423 27.3355L18.322 27.3623L18.2206 27.3882L18.119 27.4131L18.017 27.437L17.9146 27.4599L17.812 27.4818L17.709 27.5027L17.6058 27.5226L17.5024 27.5415L17.3986 27.5595L17.2946 27.5763L17.1905 27.5922L17.086 27.6071L16.9813 27.6209L16.8764 27.6338L16.7714 27.6455L16.6661 27.6563L16.5606 27.6661L16.455 27.6748L16.3493 27.6825L16.2434 27.6891L16.1373 27.6947L16.0311 27.6993L15.9248 27.7028L15.8184 27.7053L15.7119 27.7067L15.6053 27.7071L15.4986 27.7065L15.392 27.7047L15.2852 27.702L15.1784 27.6982L15.0716 27.6933L14.9647 27.6874L14.8579 27.6804L14.751 27.6724L14.6442 27.6633L14.5374 27.6531L14.4306 27.6419L14.3239 27.6297L14.2173 27.6164L14.1106 27.602L14.0042 27.5866L13.8978 27.5701L13.7914 27.5526L13.6852 27.5339L13.5791 27.5143L13.4732 27.4936L13.3674 27.4718L13.2618 27.449L13.1563 27.4251L13.051 27.4002L12.9459 27.3742L12.841 27.3471L12.7363 27.3191L12.6318 27.2899L12.5277 27.2598L12.4237 27.2286L12.3199 27.1963L12.2165 27.163L12.1134 27.1287L12.0104 27.0933L11.9078 27.0569L11.8056 27.0195L11.7036 26.981L11.602 26.9415L11.5007 26.901L11.3998 26.8594L11.2992 26.8168L11.199 26.7733L11.0993 26.7287L10.9998 26.6831L10.9009 26.6365L10.8023 26.5889L10.7042 26.5403L10.6064 26.4907L10.5092 26.4401L10.4124 26.3885L10.3161 26.3359L10.2202 26.2824L10.1249 26.2279L10.03 26.1724L9.93568 26.1159L9.84184 26.0585L9.74856 26.0002L9.65584 25.9408L9.56368 25.8806L9.47208 25.8193L9.38104 25.7571L9.29056 25.6941L9.20072 25.6301L9.11144 25.5651L9.0228 25.4993L8.93472 25.4325L8.84736 25.3648L8.76064 25.2963L8.67456 25.2267L8.58912 25.1564L8.50432 25.0851L8.42024 25.0131L8.33688 24.94L8.25416 24.8662L8.17216 24.7915L8.09096 24.7159L8.0104 24.6395L7.93056 24.5623L7.85152 24.4842L7.77328 24.4053L7.69576 24.3255L7.61896 24.2451L7.54296 24.1637L7.46784 24.0816L7.39344 23.9987L7.31984 23.915L7.24712 23.8305L7.17512 23.7453L7.10408 23.6593L7.03376 23.5725L6.9644 23.4851L6.89584 23.3968L6.82816 23.3079L6.76136 23.2182L6.69536 23.1279L6.63032 23.0367L6.56624 22.945L6.50296 22.8525L6.44064 22.7594L6.37925 22.6656L6.31878 22.5711L6.25923 22.476L6.20064 22.3803L6.14299 22.2839L6.0863 22.1869L6.03058 22.0892L5.97582 21.9911L5.92204 21.8922L5.86925 21.7928L5.81744 21.6928L5.76663 21.5923L5.71683 21.4911L5.66804 21.3895L5.62026 21.2873L5.57351 21.1845L5.52778 21.0813L5.4831 20.9775L5.43945 20.8732L5.39684 20.7685L5.3553 20.6633L5.3148 20.5575L5.27537 20.4514L5.237 20.3448L5.19971 20.2377L5.1635 20.1303L5.12838 20.0223L5.09434 19.914L5.06139 19.8054L5.02954 19.6963L4.9988 19.5868L4.96916 19.477L4.94064 19.3667L4.91323 19.2563L4.88694 19.1454L4.86178 19.0342L4.83774 18.9227L4.81483 18.8109L4.79306 18.6988L4.77243 18.5864L4.75294 18.4738L4.73461 18.3609L4.71742 18.2478L4.70138 18.1344L4.6865 18.0208L4.67278 17.907L4.66022 17.793L4.64882 17.6788L4.63858 17.5644L4.62953 17.4499L4.62164 17.3352L4.61492 17.2203L4.60938 17.1054L4.60502 16.9903L4.60185 16.8751L4.59985 16.7599L4.59903 16.6444L4.59941 16.529L4.60096 16.4135L4.60371 16.2979L4.60764 16.1823L4.61277 16.0667L4.61909 15.9511L4.62659 15.8354L4.6353 15.7198L4.64518 15.6041L4.65627 15.4886L4.66856 15.373L4.68203 15.2575L4.6967 15.1421L4.71257 15.0267L4.72962 14.9115L4.74788 14.7963L4.76732 14.6813L4.78796 14.5664L4.80979 14.4516L4.83282 14.337L4.85702 14.2226L4.88243 14.1083L4.90902 13.9942L4.9368 13.8803L4.96576 13.7666L4.99591 13.6531L5.02724 13.5399L5.05975 13.4269L5.09345 13.3142L5.12831 13.2017L5.16436 13.0895L5.20158 12.9776L5.23996 12.866L5.27952 12.7547L5.32024 12.6438L5.36212 12.5331L5.40516 12.4229L5.44936 12.313L5.49471 12.2035L5.54122 12.0943L5.58886 11.9855L5.63766 11.8772L5.68759 11.7693L5.73866 11.6618L5.79086 11.5547L5.8442 11.4482L5.89866 11.342L5.95423 11.2364L6.01092 11.1312L6.06873 11.0266L6.12764 10.9224L6.18765 10.8187L6.24876 10.7157L6.31097 10.6131L6.37426 10.5111L6.43864 10.4097L6.50408 10.3088L6.57064 10.2086L6.63816 10.1089L6.70688 10.0099L6.77656 9.91137L6.84728 9.81353L6.91912 9.71641L6.99192 9.61985L7.06584 9.52401L7.14072 9.42881L7.21664 9.33433L7.29352 9.24057L7.37144 9.14745L7.4504 9.05505L7.53032 8.96337L7.6112 8.87249L7.69312 8.78233L7.77592 8.69289L7.85976 8.60425L7.94456 8.51633L8.03024 8.42929L8.11688 8.34297L8.20448 8.25745L8.29304 8.17281L8.38248 8.08889L8.4728 8.00593L8.56408 7.92369L8.65624 7.84241L8.7492 7.76193L8.84312 7.68233L8.93792 7.60361L9.03352 7.52577L9.13 7.44881L9.22736 7.37281L9.32552 7.29769L9.42448 7.22353L9.52432 7.15025L9.62488 7.07793L9.72624 7.00657L9.82848 6.93617L9.93144 6.86673L10.0351 6.79833L10.1397 6.73081L10.2449 6.66433L10.3509 6.59885L10.4576 6.53436L10.565 6.47089L10.6731 6.40844L10.782 6.34701L10.8915 6.28662L11.0017 6.22728L11.1126 6.169L11.2241 6.11177L11.3362 6.0556L11.449 6.0005L11.5625 5.94649L11.6766 5.89356L11.7912 5.84172L11.9065 5.79097L12.0223 5.74134L12.1387 5.69282L12.2557 5.64541L12.3731 5.59913L12.4912 5.55398L12.6098 5.50997L12.7289 5.46709L12.8485 5.42537L12.9686 5.38479L13.0891 5.34537L13.2101 5.30713L13.3316 5.27004L13.4535 5.23413L13.5759 5.1994L13.6986 5.16585L13.8218 5.13349L13.9454 5.10232L14.0694 5.07235L14.1938 5.04359L14.3185 5.01602L14.4435 4.98967L14.5689 4.96453L14.6946 4.94062L14.8206 4.91793L14.947 4.89645L15.0736 4.87621L15.2005 4.85721L15.3276 4.83944L15.455 4.8229L15.5025 4.81721ZM15.5562 9.35249L15.5196 6.26113L15.4152 6.27572L15.303 6.29254L15.1906 6.31049L15.079 6.32945L14.9673 6.34958L14.8561 6.37074L14.7451 6.39299L14.6346 6.41628L14.5242 6.44067L14.4142 6.46614L14.3044 6.49266L14.1951 6.52023L14.0859 6.5489L13.981 6.57753L13.8693 6.60929L13.7614 6.64105L13.6539 6.67385L13.547 6.70761L13.4404 6.74249L13.3342 6.77841L13.2284 6.81529L13.1232 6.85313L13.0184 6.89209L12.9141 6.93193L12.8102 6.97289L12.707 7.01473L12.6039 7.05769L12.5016 7.10153L12.3998 7.14633L12.2986 7.19209L12.1978 7.23889L12.0974 7.28665L11.998 7.33521L11.8987 7.38489L11.8005 7.43537L11.7024 7.48697L11.6053 7.53921L11.5083 7.59273L11.4123 7.64681L11.317 7.70193L11.2221 7.75801L11.1279 7.81489L11.0342 7.87281L10.9415 7.93137L10.8492 7.99097L10.7578 8.05137L10.667 8.11257L10.5768 8.17473L10.4872 8.23777L10.3986 8.30137L10.3106 8.36609L10.2232 8.43153L10.1366 8.49777L10.0509 8.56473L9.96568 8.63265L9.88144 8.70121L9.79792 8.77057L9.71504 8.84089L9.6332 8.91169L9.55192 8.98345L9.47144 9.05593L9.39184 9.12905L9.31312 9.20289L9.23496 9.27761L9.15792 9.35281L9.0816 9.42881L9.006 9.50561L8.93136 9.58297L8.85752 9.66113L8.78456 9.73985L8.71248 9.81921L8.6412 9.89929L8.57072 9.98009L8.50144 10.0613L8.4328 10.1433L8.36504 10.2259L8.29824 10.3091L8.2324 10.3927L8.16728 10.4772L8.1032 10.5621L8.04 10.6476L7.97776 10.7337L7.9164 10.8203L7.85608 10.9074L7.79664 10.9951L7.73808 11.0833L7.68048 11.172L7.62392 11.2611L7.56832 11.3508L7.5136 11.4411L7.45984 11.5317L7.40712 11.6228L7.35528 11.7144L7.30456 11.8063L7.25472 11.8987L7.20576 11.9917L7.158 12.0848L7.11112 12.1786L7.06528 12.2727L7.0204 12.367L6.97656 12.4619L6.93368 12.557L6.89184 12.6525L6.85096 12.7483L6.8112 12.8445L6.7724 12.941L6.73456 13.0379L6.69776 13.135L6.66208 13.2323L6.62728 13.3301L6.59368 13.4279L6.56096 13.5262L6.52936 13.6247L6.49872 13.7234L6.4692 13.8223L6.44064 13.9214L6.4132 14.0207L6.38673 14.1203L6.36132 14.2199L6.33696 14.3199L6.31365 14.4199L6.29137 14.5201L6.27013 14.6205L6.24996 14.721L6.23082 14.8215L6.21272 14.9223L6.19569 15.0231L6.17968 15.1241L6.16474 15.225L6.15083 15.3261L6.13798 15.4272L6.12618 15.5284L6.11542 15.6296L6.1057 15.7309L6.09704 15.8322L6.08942 15.9334L6.08285 16.0347L6.07731 16.136L6.07282 16.2372L6.06938 16.3384L6.06698 16.4395L6.06562 16.5407L6.06529 16.6418L6.066 16.7427L6.06775 16.8436L6.07054 16.9444L6.07434 17.0451L6.07919 17.1457L6.08506 17.2462L6.09196 17.3464L6.09989 17.4467L6.10883 17.5467L6.1188 17.6465L6.12978 17.7462L6.14178 17.8457L6.15479 17.9451L6.16881 18.0441L6.18384 18.1431L6.19986 18.2416L6.2169 18.3401L6.23493 18.4383L6.25394 18.5362L6.27396 18.6339L6.29495 18.7313L6.31694 18.8285L6.33989 18.9252L6.36384 19.0218L6.38875 19.118L6.41464 19.2139L6.44144 19.3095L6.46928 19.4047L6.498 19.4996L6.52776 19.5942L6.5584 19.6884L6.59 19.7822L6.62256 19.8755L6.656 19.9686L6.6904 20.0612L6.72576 20.1535L6.762 20.2452L6.79912 20.3366L6.8372 20.4275L6.87616 20.518L6.91608 20.608L6.9568 20.6976L6.99848 20.7867L7.04104 20.8753L7.0844 20.9635L7.12872 21.0511L7.17384 21.1383L7.21984 21.2249L7.26672 21.311L7.3144 21.3966L7.36296 21.4816L7.41232 21.5661L7.46256 21.65L7.5136 21.7335L7.56544 21.8163L7.61808 21.8985L7.6716 21.9803L7.72576 22.0612L7.78088 22.1418L7.83664 22.2216L7.89328 22.3009L7.95064 22.3795L8.0088 22.4575L8.06768 22.5349L8.12736 22.6117L8.18768 22.6878L8.2488 22.7632L8.31064 22.838L8.3732 22.9122L8.43648 22.9855L8.50048 23.0584L8.56512 23.1304L8.63048 23.2019L8.69648 23.2725L8.7632 23.3425L8.83056 23.4118L8.89864 23.4803L8.96728 23.5482L9.03664 23.6153L9.10664 23.6817L9.17712 23.7473L9.2484 23.8123L9.32016 23.8763L9.39256 23.9397L9.4656 24.0023L9.5392 24.0642L9.61336 24.1253L9.68808 24.1855L9.76336 24.2451L9.8392 24.3038L9.9156 24.3618L9.99256 24.4189L10.0699 24.4752L10.1478 24.5307L10.2263 24.5855L10.3053 24.6394L10.3848 24.6925L10.4647 24.7447L10.5451 24.7962L10.626 24.8468L10.7073 24.8966L10.789 24.9455L10.8713 24.9936L10.9538 25.0408L11.037 25.0872L11.1203 25.1327L11.2042 25.1775L11.2885 25.2213L11.373 25.2642L11.4581 25.3063L11.5435 25.3475L11.6292 25.3879L11.7152 25.4274L11.8017 25.466L11.8883 25.5037L11.9754 25.5405L12.0627 25.5765L12.1504 25.6115L12.2382 25.6457L12.3265 25.679L12.415 25.7114L12.5037 25.7429L12.5926 25.7735L12.6819 25.8032L12.7714 25.8319L12.861 25.8599L12.951 25.8868L13.041 25.9129L13.1313 25.9381L13.2218 25.9623L13.3124 25.9858L13.4032 26.0082L13.4942 26.0297L13.5853 26.0503L13.6766 26.0701L13.7679 26.0889L13.8594 26.1067L13.951 26.1237L14.0426 26.1398L14.1345 26.155L14.2263 26.1691L14.3182 26.1825L14.4102 26.1949L14.5022 26.2064L14.5943 26.217L14.6864 26.2267L14.7786 26.2354L14.8707 26.2432L14.9629 26.2501L15.055 26.2562L15.1471 26.2612L15.2392 26.2655L15.3314 26.2687L15.4234 26.2711L15.5153 26.2726L15.6072 26.2731L15.699 26.2728L15.7908 26.2715L15.8825 26.2695L15.974 26.2664L16.0655 26.2625L16.1568 26.2576L16.248 26.2519L16.339 26.2453L16.43 26.2378L16.5207 26.2294L16.6114 26.2201L16.7018 26.2099L16.7921 26.1989L16.8822 26.187L16.972 26.1743L17.0617 26.1606L17.1511 26.146L17.2402 26.1307L17.3293 26.1143L17.418 26.0972L17.5065 26.0793L17.5948 26.0604L17.6826 26.0407L17.7703 26.0203L17.8577 25.9988L17.9448 25.9767L18.0316 25.9536L18.1181 25.9297L18.2042 25.905L18.2901 25.8795L18.3755 25.8531L18.4606 25.8259L18.5455 25.7979L18.6299 25.7691L18.714 25.7395L18.7977 25.7091L18.881 25.6779L18.9638 25.6459L19.0463 25.6131L19.1285 25.5795L19.2102 25.5452L19.2914 25.5101L19.3722 25.4743L19.4526 25.4376L19.5326 25.4002L19.6121 25.362L19.691 25.3232L19.7697 25.2835L19.8477 25.2431L19.9254 25.2019L20.0023 25.1602L20.079 25.1176L20.1551 25.0743L20.2306 25.0303L20.3058 24.9856L20.3803 24.9403L20.4542 24.8942L20.5278 24.8474L20.6006 24.8L20.673 24.7519L20.745 24.703L20.8162 24.6535L20.8867 24.6035L20.957 24.5527L21.0264 24.5014L21.0954 24.4493L21.1638 24.3966L21.2313 24.3434L21.2986 24.2894L21.3651 24.2348L21.4308 24.1798L21.4962 24.1239L21.5608 24.0676L21.6247 24.0108L21.6882 23.9531L21.7508 23.8952L21.8129 23.8366L21.8743 23.7774L21.935 23.7177L21.995 23.6574L22.0545 23.5966L22.1132 23.5352L22.1711 23.4734L22.2285 23.411L22.2852 23.3481L22.341 23.2848L22.3964 23.2208L22.4509 23.1565L22.5046 23.0917L22.5578 23.0263L22.6102 22.9607L22.6618 22.8943L22.7128 22.8277L22.763 22.7605L22.8125 22.693L22.8611 22.6251L22.9092 22.5566L22.9564 22.4879L23.0029 22.4187L23.0487 22.349L23.0935 22.2791L23.1378 22.2087L23.1813 22.1379L23.224 22.0669L23.2658 21.9955L23.3071 21.9235L23.3474 21.8516L23.387 21.779L23.4258 21.7063L23.4638 21.6332L23.5011 21.5596L23.5374 21.4862L23.5732 21.4119L23.6079 21.3379L23.6422 21.2631L23.6753 21.1885L23.7078 21.1132L23.7395 21.038L23.7703 20.9625L23.8004 20.8867L23.8297 20.8106L23.858 20.7345L23.8858 20.6579L23.9125 20.5813L23.9385 20.5045L23.9637 20.4275L23.9881 20.3502L24.0117 20.2728L24.0344 20.1954L24.0563 20.1176L24.0774 20.0399L24.0977 19.9619L24.1171 19.8838L24.1358 19.8057L24.1536 19.7272L24.1706 19.6488L24.1868 19.5703L24.2021 19.4919L24.2166 19.4132L24.2303 19.3343L24.2432 19.2556L24.2553 19.1767L24.2665 19.0978L24.2769 19.019L24.2865 18.94L24.2953 18.8608L24.3032 18.7822L24.3104 18.7029L24.3167 18.6239L24.3222 18.5451L24.3269 18.4661L24.3307 18.3872L24.3338 18.3084L24.336 18.2294L24.3374 18.1508L24.338 18.0719L24.3378 17.9933L24.3368 17.9147L24.335 17.8363L24.3323 17.7579L24.3289 17.6795L24.3246 17.6015L24.3196 17.5233L24.3138 17.4453L24.3072 17.3677L24.2998 17.2899L24.2915 17.2125L24.2825 17.135L24.2727 17.0579L24.2622 16.9808L24.2508 16.9039L24.2386 16.8272L24.2258 16.7508L24.2121 16.6746L24.1976 16.5986L24.1823 16.5225L24.1663 16.447L24.1496 16.3717L24.1321 16.2965L24.1138 16.2215L24.0948 16.1471L24.075 16.0724L24.0545 15.9984L24.0332 15.9245L24.0112 15.8511L23.9885 15.7777L23.965 15.7047L23.9408 15.6321L23.9159 15.5598L23.8902 15.4875L23.8639 15.4159L23.8368 15.3445L23.809 15.2735L23.7806 15.2027L23.7514 15.1323L23.7215 15.0624L23.6909 14.9927L23.6597 14.9235L23.6278 14.8547L23.5951 14.786L23.5618 14.7178L23.5279 14.6502L23.4932 14.5827L23.458 14.5159L23.4221 14.4495L23.3854 14.3832L23.3483 14.3177L23.3104 14.2524L23.2719 14.1877L23.2327 14.1232L23.1931 14.0595L23.1526 13.9959L23.1118 13.933L23.0702 13.8705L23.028 13.8085L22.9851 13.7468L22.9418 13.6858L22.8979 13.6253L22.8533 13.5651L22.8082 13.5055L22.7625 13.4464L22.7164 13.3879L22.6695 13.3298L22.6222 13.2723L22.5742 13.2152L22.5258 13.1587L22.477 13.1028L22.4274 13.0473L22.3774 12.9925L22.3269 12.9381L22.276 12.8845L22.2243 12.8311L22.1724 12.7786L22.1198 12.7263L22.0668 12.6749L22.0134 12.624L21.9595 12.5736L21.905 12.5238L21.8502 12.4747L21.7949 12.4261L21.739 12.3779L21.683 12.3307L21.6263 12.2838L21.5693 12.2376L21.5118 12.1921L21.4539 12.147L21.3957 12.1027L21.3372 12.0591L21.278 12.0159L21.2184 11.9732L21.1588 11.9315L21.0984 11.8902L21.0381 11.8498L20.9772 11.8098L20.9159 11.7704L20.8542 11.7317L20.7925 11.6938L20.7301 11.6563L20.6676 11.6197L20.6046 11.5835L20.5416 11.5483L20.4781 11.5135L20.4142 11.4794L20.3502 11.4459L20.2859 11.4133L20.2213 11.3811L20.1563 11.3497L20.0913 11.319L20.0261 11.289L19.9602 11.2595L19.8946 11.2308L19.8285 11.2028L19.7621 11.1754L19.6956 11.1487L19.629 11.1228L19.5622 11.0975L19.4949 11.0728L19.4278 11.049L19.3602 11.0257L19.2926 11.0031L19.225 10.9813L19.157 10.9602L19.0891 10.9397L19.0206 10.9199L18.9524 10.9008L18.884 10.8824L18.8154 10.8647L18.7468 10.8477L18.6778 10.8314L18.609 10.8158L18.5402 10.8009L18.4711 10.7867L18.4018 10.7731L18.333 10.7603L18.2636 10.7482L18.1944 10.7367L18.1249 10.7259L18.0558 10.7159L17.9861 10.7065L17.9169 10.6979L17.8474 10.6899L17.778 10.6827L17.7086 10.6761L17.6391 10.6702L17.5699 10.665L17.5003 10.6605L17.431 10.6567L17.3619 10.6535L17.2923 10.6511L17.2233 10.6493L17.1542 10.6483L17.0851 10.6479L17.0379 10.648L17.0737 13.6683L17.095 13.6684L17.1347 13.669L17.1745 13.6699L17.2143 13.6712L17.2542 13.6731L17.2941 13.6752L17.334 13.6778L17.374 13.6808L17.414 13.6843L17.4541 13.6881L17.4942 13.6923L17.5342 13.697L17.5744 13.7021L17.6145 13.7076L17.6546 13.7135L17.6948 13.7199L17.735 13.7267L17.775 13.7339L17.8152 13.7416L17.8553 13.7496L17.8954 13.7582L17.9354 13.7671L17.9755 13.7764L18.0154 13.7862L18.0554 13.7963L18.0954 13.807L18.1352 13.818L18.175 13.8295L18.2148 13.8414L18.2545 13.8537L18.2941 13.8665L18.3337 13.8797L18.3731 13.8933L18.4126 13.9073L18.4518 13.9218L18.491 13.9367L18.5302 13.9519L18.5692 13.9677L18.6081 13.9839L18.6469 14.0004L18.6856 14.0175L18.7242 14.0349L18.7626 14.0527L18.801 14.0711L18.8391 14.0897L18.8772 14.1088L18.915 14.1284L18.9528 14.1483L18.9904 14.1687L19.0278 14.1895L19.0651 14.2107L19.1022 14.2323L19.1391 14.2543L19.1759 14.2768L19.2125 14.2997L19.2489 14.323L19.285 14.3466L19.321 14.3707L19.3569 14.3952L19.3925 14.4201L19.4278 14.4454L19.463 14.4711L19.498 14.4971L19.5327 14.5236L19.5672 14.5505L19.6015 14.5778L19.6355 14.6055L19.6693 14.6335L19.7029 14.6619L19.7362 14.6907L19.7692 14.7199L19.802 14.7495L19.8345 14.7795L19.8667 14.8099L19.8986 14.8406L19.9304 14.8717L19.9618 14.9031L19.9929 14.935L20.0238 14.9671L20.0542 14.9997L20.0845 15.0327L20.1144 15.0659L20.1441 15.0995L20.1734 15.1335L20.2023 15.1679L20.231 15.2025L20.2594 15.2375L20.2874 15.2729L20.315 15.3086L20.3424 15.3447L20.3694 15.381L20.3961 15.4177L20.4223 15.4547L20.4483 15.492L20.4739 15.5297L20.4991 15.5677L20.524 15.6059L20.5486 15.6446L20.5726 15.6835L20.5964 15.7227L20.6198 15.7622L20.6427 15.8019L20.6654 15.842L20.6875 15.8824L20.7094 15.9231L20.7308 15.964L20.7518 16.0052L20.7724 16.0467L20.7926 16.0884L20.8123 16.1305L20.8317 16.1727L20.8506 16.2153L20.8692 16.2581L20.8873 16.3011L20.905 16.3444L20.9222 16.3879L20.939 16.4317L20.9554 16.4757L20.9713 16.5199L20.9867 16.5644L21.0018 16.6091L21.0163 16.6539L21.0304 16.6991L21.0441 16.7443L21.0573 16.7899L21.07 16.8356L21.0823 16.8815L21.0942 16.9275L21.1054 16.9739L21.1163 17.0203L21.1267 17.0669L21.1366 17.1138L21.1461 17.1607L21.155 17.2078L21.1634 17.2551L21.1714 17.3026L21.179 17.3501L21.1859 17.3979L21.1924 17.4457L21.1984 17.4937L21.2039 17.5419L21.209 17.5901L21.2134 17.6384L21.2174 17.6869L21.221 17.7355L21.2239 17.7842L21.2264 17.833L21.2283 17.8819L21.2298 17.9308L21.2307 17.9799L21.2312 18.029L21.231 18.0781L21.2305 18.1274L21.2294 18.1767L21.2277 18.2261L21.2255 18.2755L21.2228 18.325L21.2196 18.3745L21.2158 18.424L21.2115 18.4736L21.2067 18.5232L21.2014 18.5728L21.1955 18.6224L21.1891 18.6721L21.1822 18.7218L21.1748 18.7714L21.1668 18.821L21.1582 18.8706L21.1492 18.9202L21.1396 18.9698L21.1295 19.0193L21.1188 19.0688L21.1076 19.1183L21.0959 19.1677L21.0836 19.2171L21.0708 19.2664L21.0575 19.3156L21.0436 19.3648L21.0292 19.4139L21.0142 19.4629L20.9988 19.5119L20.9828 19.5607L20.9662 19.6095L20.9492 19.6581L20.9315 19.7066L20.9134 19.7551L20.8947 19.8033L20.8755 19.8515L20.8558 19.8995L20.8355 19.9475L20.8147 19.9952L20.7934 20.0429L20.7715 20.0903L20.7491 20.1376L20.7262 20.1848L20.7028 20.2318L20.6788 20.2786L20.6543 20.3252L20.6293 20.3716L20.6038 20.4179L20.5778 20.4639L20.5512 20.5098L20.5241 20.5555L20.4966 20.6008L20.4684 20.6461L20.4398 20.6911L20.4107 20.7358L20.381 20.7803L20.351 20.8246L20.3203 20.8687L20.2892 20.9124L20.2575 20.9559L20.2254 20.9992L20.1928 21.0422L20.1597 21.0849L20.1261 21.1274L20.092 21.1695L20.0574 21.2114L20.0224 21.253L19.9869 21.2943L19.9508 21.3352L19.9143 21.3759L19.8774 21.4163L19.8399 21.4563L19.8021 21.4959L19.7637 21.5354L19.7249 21.5744L19.6856 21.6131L19.6459 21.6515L19.6057 21.6895L19.565 21.7271L19.524 21.7643L19.4825 21.8013L19.4406 21.8379L19.3982 21.874L19.3554 21.9098L19.3121 21.9452L19.2684 21.9803L19.2243 22.0148L19.1798 22.0491L19.135 22.0829L19.0896 22.1163L19.0439 22.1493L18.9978 22.1819L18.9513 22.2141L18.9043 22.2458L18.857 22.2771L18.8094 22.3079L18.7613 22.3384L18.7128 22.3684L18.664 22.3979L18.6148 22.427L18.5653 22.4556L18.5154 22.4838L18.465 22.5115L18.4145 22.5387L18.3635 22.5655L18.3122 22.5918L18.2606 22.6175L18.2086 22.6429L18.1563 22.6677L18.1037 22.692L18.0508 22.7159L17.9975 22.7391L17.944 22.762L17.8902 22.7843L17.836 22.8061L17.7815 22.8274L17.7268 22.8482L17.6718 22.8684L17.6165 22.8882L17.561 22.9074L17.5051 22.926L17.449 22.9442L17.3927 22.9617L17.3362 22.9787L17.2793 22.9953L17.2222 23.0112L17.165 23.0267L17.1074 23.0415L17.0497 23.0558L16.9917 23.0695L16.9335 23.0827L16.8751 23.0952L16.8166 23.1073L16.7578 23.1187L16.6988 23.1296L16.6397 23.1399L16.5803 23.1497L16.5209 23.1588L16.4612 23.1674L16.4014 23.1754L16.3414 23.1828L16.2814 23.1896L16.2211 23.1958L16.1607 23.2015L16.1002 23.2064L16.0396 23.2109L15.9788 23.2147L15.918 23.2179L15.857 23.2206L15.796 23.2226L15.7348 23.2239L15.6736 23.2247L15.6123 23.225L15.551 23.2246L15.4895 23.2235L15.428 23.2219L15.3665 23.2196L15.3049 23.2167L15.2432 23.2132L15.1815 23.2091L15.1198 23.2044L15.0582 23.1991L14.9964 23.1931L14.9347 23.1865L14.873 23.1792L14.8113 23.1714L14.7495 23.1629L14.6878 23.1539L14.6262 23.1441L14.5646 23.1338L14.503 23.1228L14.4414 23.1112L14.3799 23.0991L14.3185 23.0862L14.2571 23.0727L14.1958 23.0586L14.1346 23.0439L14.0734 23.0286L14.0124 23.0126L13.9515 22.9959L13.8906 22.9787L13.83 22.9609L13.7694 22.9424L13.7089 22.9233L13.6486 22.9036L13.5883 22.8833L13.5283 22.8623L13.4684 22.8407L13.4086 22.8185L13.3491 22.7957L13.2897 22.7723L13.2305 22.7482L13.1714 22.7235L13.1126 22.6983L13.054 22.6723L12.9955 22.6459L12.9374 22.6187L12.8793 22.591L12.8215 22.5627L12.764 22.5337L12.7067 22.5042L12.6497 22.474L12.5929 22.4433L12.5363 22.4119L12.4801 22.38L12.424 22.3475L12.3683 22.3143L12.3129 22.2807L12.2578 22.2463L12.2029 22.2115L12.1483 22.176L12.0941 22.1399L12.0402 22.1033L11.9866 22.0661L11.9334 22.0283L11.8804 21.99L11.8278 21.9511L11.7756 21.9116L11.7238 21.8716L11.6722 21.831L11.6211 21.7899L11.5703 21.7482L11.5199 21.7059L11.4699 21.6631L11.4203 21.6198L11.3711 21.5759L11.3223 21.5315L11.2739 21.4866L11.2259 21.4411L11.1784 21.3951L11.1312 21.3487L11.0846 21.3016L11.0383 21.2541L10.9925 21.206L10.9471 21.1575L10.9022 21.1084L10.8578 21.0589L10.8138 21.0089L10.7704 20.9583L10.7274 20.9074L10.6848 20.8559L10.6428 20.8039L10.6013 20.7515L10.5602 20.6986L10.5197 20.6452L10.4797 20.5914L10.4402 20.5371L10.4013 20.4824L10.3628 20.4272L10.3249 20.3716L10.2875 20.3156L10.2507 20.2591L10.2145 20.2023L10.1787 20.145L10.1436 20.0873L10.109 20.0291L10.075 19.9707L10.0415 19.9117L10.0086 19.8524L9.97632 19.7927L9.94464 19.7327L9.91352 19.6722L9.88296 19.6114L9.85304 19.5503L9.82376 19.4887L9.79504 19.4268L9.76696 19.3646L9.73952 19.302L9.71264 19.2391L9.6864 19.1759L9.6608 19.1123L9.63584 19.0484L9.61152 18.9842L9.58792 18.9197L9.56488 18.8549L9.54248 18.7899L9.52072 18.7245L9.49968 18.6588L9.47928 18.5929L9.45952 18.5267L9.4404 18.4603L9.422 18.3935L9.40432 18.3266L9.3872 18.2594L9.37088 18.1919L9.3552 18.1243L9.34016 18.0564L9.32584 17.9883L9.31224 17.92L9.29928 17.8515L9.28704 17.7828L9.27552 17.7139L9.26472 17.6449L9.25456 17.5756L9.24512 17.5063L9.23648 17.4367L9.22848 17.367L9.2212 17.2971L9.21464 17.2271L9.2088 17.1569L9.20368 17.0867L9.19928 17.0163L9.1956 16.9458L9.19264 16.8752L9.1904 16.8045L9.18896 16.7337L9.18824 16.6629L9.18816 16.5919L9.18888 16.5209L9.1904 16.4499L9.19256 16.3787L9.19552 16.3075L9.1992 16.2363L9.2036 16.1651L9.20872 16.0939L9.21464 16.0226L9.22128 15.9513L9.22864 15.88L9.2368 15.8087L9.24568 15.7375L9.25528 15.6663L9.26568 15.5951L9.2768 15.5239L9.28872 15.4527L9.30128 15.3816L9.31464 15.3106L9.3288 15.2396L9.34368 15.1687L9.35928 15.0979L9.3756 15.0272L9.39272 14.9567L9.41056 14.8861L9.4292 14.8157L9.44856 14.7455L9.46864 14.6753L9.48944 14.6052L9.51104 14.5354L9.53336 14.4656L9.5564 14.396L9.58024 14.3267L9.6048 14.2574L9.63008 14.1883L9.65608 14.1195L9.68288 14.0508L9.7104 13.9823L9.73864 13.914L9.7676 13.846L9.79728 13.7782L9.82776 13.7106L9.85888 13.6432L9.8908 13.5761L9.92336 13.5093L9.95672 13.4427L9.99072 13.3763L10.0255 13.3103L10.061 13.2446L10.0972 13.1791L10.1341 13.1139L10.1717 13.0491L10.21 12.9846L10.249 12.9203L10.2887 12.8564L10.3292 12.7929L10.3703 12.7296L10.4121 12.6667L10.4546 12.6043L10.4978 12.5421L10.5416 12.4803L10.5862 12.419L10.6314 12.3579L10.6772 12.2973L10.7238 12.2371L10.771 12.1773L10.8189 12.1179L10.8674 12.0589L10.9166 12.0004L10.9664 11.9423L11.0169 11.8846L11.068 11.8274L11.1198 11.7706L11.1722 11.7143L11.2252 11.6585L11.2789 11.6031L11.3331 11.5483L11.388 11.4939L11.4435 11.4399L11.4996 11.3866L11.5563 11.3337L11.6136 11.2813L11.6714 11.2295L11.7299 11.1781L11.789 11.1274L11.8486 11.0771L11.9089 11.0274L11.9696 10.9783L12.031 10.9296L12.0928 10.8816L12.1553 10.8342L12.2182 10.7873L12.2818 10.741L12.3458 10.6953L12.4104 10.6502L12.4755 10.6056L12.5412 10.5617L12.6073 10.5184L12.6739 10.4758L12.7411 10.4337L12.8087 10.3923L12.8769 10.3515L12.9454 10.3113L13.0146 10.2718L13.0841 10.2329L13.1541 10.1947L13.2246 10.1571L13.2954 10.1203L13.3668 10.084L13.4386 10.0485L13.5108 10.0136L13.5834 9.97945L13.6565 9.94593L13.7299 9.91313L13.8038 9.88105L13.8781 9.84961L13.9527 9.81889L14.0277 9.78897L14.1031 9.75969L14.1789 9.73113L14.255 9.70329L14.3314 9.67625L14.4083 9.64985L14.4854 9.62425L14.563 9.59937L14.6407 9.57521L14.7189 9.55185L14.7973 9.52921L14.876 9.50737L14.955 9.48625L15.0343 9.46585L15.1139 9.44625L15.1938 9.42745L15.2739 9.40945L15.3542 9.39217L15.4349 9.37569L15.5157 9.36001L15.5562 9.35249ZM16.5498 15.1607L15.6277 15.3811L15.5735 10.8135L15.5301 10.8232L15.4646 10.8387L15.3993 10.8547L15.3344 10.8714L15.2696 10.8887L15.2052 10.9066L15.1408 10.9252L15.077 10.9443L15.0131 10.9641L14.95 10.9843L14.8867 11.0054L14.8238 11.027L14.7613 11.0491L14.699 11.0719L14.6372 11.0951L14.5755 11.1191L14.5142 11.1436L14.4532 11.1687L14.3923 11.1944L14.3322 11.2205L14.2722 11.2474L14.2126 11.2747L14.1532 11.3027L14.0943 11.3311L14.0356 11.3601L13.9775 11.3896L13.9197 11.4197L13.8622 11.4503L13.8052 11.4815L13.7485 11.5131L13.6922 11.5454L13.6365 11.578L13.5807 11.6114L13.5257 11.6451L13.4711 11.6793L13.4169 11.714L13.363 11.7493L13.3096 11.7851L13.2566 11.8213L13.2041 11.8579L13.1521 11.8951L13.1003 11.9327L13.0491 11.9709L12.9984 12.0095L12.9481 12.0485L12.8983 12.0879L12.849 12.1278L12.8001 12.1682L12.7516 12.2091L12.7038 12.2502L12.6563 12.2919L12.6094 12.3339L12.5629 12.3763L12.5169 12.4193L12.4714 12.4626L12.4265 12.5062L12.3819 12.5503L12.338 12.5947L12.2946 12.6396L12.2517 12.6847L12.2091 12.7305L12.1673 12.7763L12.1259 12.8227L12.085 12.8694L12.0448 12.9163L12.005 12.9637L11.9658 13.0112L11.927 13.0594L11.889 13.1076L11.8513 13.1563L11.8142 13.2054L11.7778 13.2546L11.7418 13.3041L11.7064 13.3539L11.6715 13.4042L11.6372 13.4546L11.6035 13.5054L11.5704 13.5563L11.5378 13.6075L11.5058 13.6591L11.4744 13.7107L11.4434 13.7629L11.4132 13.815L11.3834 13.8675L11.3542 13.9203L11.3258 13.9731L11.2978 14.0263L11.2704 14.0796L11.2435 14.1333L11.2174 14.1869L11.1917 14.241L11.1666 14.2951L11.1422 14.3494L11.1183 14.4039L11.095 14.4586L11.0724 14.5133L11.0503 14.5683L11.0289 14.6235L11.0079 14.6787L10.9877 14.734L10.968 14.7896L10.9489 14.8453L10.9304 14.9011L10.9125 14.9569L10.8952 15.013L10.8785 15.0691L10.8625 15.1251L10.847 15.1815L10.832 15.2379L10.8178 15.2943L10.8041 15.3507L10.791 15.4073L10.7785 15.4639L10.7666 15.5207L10.7554 15.5773L10.7446 15.634L10.7346 15.6909L10.7251 15.7476L10.7162 15.8044L10.7079 15.8614L10.7002 15.9181L10.6932 15.9751L10.6867 16.0318L10.6808 16.0887L10.6755 16.1456L10.6708 16.2023L10.6667 16.2591L10.6632 16.3159L10.6602 16.3726L10.6579 16.4292L10.6562 16.4858L10.655 16.5424L10.6544 16.5989L10.6545 16.6553L10.655 16.7116L10.6562 16.7679L10.658 16.8241L10.6603 16.8802L10.6632 16.9362L10.6667 16.992L10.6708 17.0478L10.6754 17.1035L10.6806 17.159L10.6864 17.2145L10.6927 17.2696L10.6996 17.3249L10.707 17.3798L10.7151 17.4347L10.7237 17.4894L10.7328 17.5439L10.7425 17.5984L10.7527 17.6526L10.7635 17.7067L10.7748 17.7604L10.7867 17.8142L10.7991 17.8676L10.8121 17.921L10.8255 17.9739L10.8396 18.027L10.8541 18.0795L10.8691 18.1321L10.8847 18.1843L10.9008 18.2363L10.9174 18.2881L10.9346 18.3395L10.9522 18.391L10.9704 18.442L10.989 18.4927L11.0082 18.5434L11.0278 18.5937L11.048 18.6437L11.0686 18.6935L11.0897 18.7429L11.1114 18.7922L11.1334 18.8411L11.156 18.8898L11.179 18.9381L11.2025 18.9861L11.2266 19.034L11.2509 19.0814L11.2758 19.1285L11.3011 19.1754L11.327 19.2219L11.3532 19.2681L11.3798 19.314L11.407 19.3595L11.4346 19.4047L11.4625 19.4496L11.4909 19.4941L11.5198 19.5383L11.549 19.5822L11.5786 19.6258L11.6086 19.6687L11.6391 19.7116L11.67 19.754L11.7012 19.796L11.733 19.8378L11.765 19.8791L11.7974 19.9199L11.8302 19.9605L11.8634 20.0007L11.8968 20.0404L11.9308 20.0799L11.965 20.1189L11.9996 20.1575L12.0347 20.1957L12.0699 20.2334L12.1056 20.2709L12.1416 20.3079L12.1778 20.3444L12.2146 20.3806L12.2515 20.4163L12.2888 20.4517L12.3264 20.4866L12.3643 20.5211L12.4026 20.5551L12.441 20.5887L12.4798 20.6219L12.5189 20.6547L12.5582 20.6871L12.5979 20.719L12.6379 20.7504L12.678 20.7814L12.7185 20.8119L12.7592 20.8421L12.8002 20.8718L12.8414 20.901L12.8828 20.9298L12.9245 20.9581L12.9664 20.9859L13.0085 21.0133L13.0508 21.0403L13.0935 21.0668L13.1362 21.0927L13.1792 21.1183L13.2225 21.1435L13.2658 21.168L13.3093 21.1922L13.3532 21.2159L13.3971 21.2391L13.4412 21.2619L13.4854 21.2841L13.53 21.3059L13.5745 21.3272L13.6194 21.3481L13.6642 21.3685L13.7092 21.3883L13.7545 21.4078L13.7998 21.4267L13.8452 21.4452L13.8908 21.4632L13.9365 21.4807L13.9824 21.4977L14.0282 21.5143L14.0743 21.5303L14.1203 21.5459L14.1665 21.561L14.2128 21.5756L14.2592 21.5898L14.3056 21.6034L14.3521 21.6166L14.3987 21.6292L14.4454 21.6415L14.492 21.6531L14.5387 21.6644L14.5854 21.6751L14.6322 21.6854L14.6791 21.6952L14.726 21.7045L14.7729 21.7134L14.8198 21.7217L14.8667 21.7296L14.9137 21.737L14.9606 21.7439L15.0074 21.7503L15.0544 21.7563L15.1013 21.7618L15.1482 21.7668L15.1951 21.7713L15.242 21.7754L15.2888 21.779L15.3355 21.7821L15.3823 21.7847L15.429 21.7869L15.4755 21.7887L15.5222 21.7899L15.5686 21.7907L15.615 21.791L15.6614 21.7908L15.7077 21.7903L15.754 21.7891L15.8002 21.7876L15.8461 21.7857L15.892 21.7832L15.938 21.7803L15.9836 21.777L16.0293 21.7732L16.0747 21.769L16.1202 21.7643L16.1654 21.7591L16.2105 21.7536L16.2556 21.7476L16.3004 21.7411L16.345 21.7343L16.3898 21.727L16.4342 21.7192L16.4784 21.7111L16.5226 21.7024L16.5666 21.6934L16.6102 21.6839L16.6538 21.6741L16.6973 21.6638L16.7406 21.6531L16.7836 21.642L16.8265 21.6305L16.8691 21.6186L16.9118 21.6062L16.954 21.5935L16.9959 21.5803L17.038 21.5667L17.0796 21.5528L17.121 21.5386L17.1622 21.5239L17.2032 21.5087L17.2441 21.4932L17.2846 21.4774L17.3249 21.4611L17.365 21.4446L17.4048 21.4275L17.4445 21.4102L17.4837 21.3925L17.5229 21.3744L17.5617 21.356L17.6002 21.3372L17.6386 21.3181L17.6765 21.2987L17.7143 21.2788L17.7518 21.2586L17.789 21.2381L17.8259 21.2173L17.8626 21.1961L17.899 21.1746L17.935 21.1527L17.9708 21.1306L18.0063 21.1081L18.0415 21.0854L18.0765 21.0623L18.111 21.0389L18.1454 21.0151L18.1794 20.9911L18.213 20.9669L18.2463 20.9423L18.2794 20.9174L18.3121 20.8922L18.3445 20.8667L18.3766 20.841L18.4083 20.8151L18.4398 20.7888L18.4708 20.7623L18.5015 20.7355L18.532 20.7084L18.5621 20.6811L18.5918 20.6535L18.6211 20.6258L18.6502 20.5977L18.679 20.5694L18.7074 20.5409L18.7354 20.5122L18.763 20.4831L18.7902 20.454L18.8173 20.4245L18.8438 20.395L18.8701 20.3651L18.8959 20.335L18.9214 20.3048L18.9466 20.2743L18.9713 20.2437L18.9958 20.2128L19.0198 20.1819L19.0434 20.1507L19.0668 20.1192L19.0897 20.0878L19.1122 20.0559L19.1345 20.024L19.1562 19.9921L19.1777 19.9598L19.1988 19.9275L19.2194 19.895L19.2397 19.8623L19.2596 19.8295L19.2791 19.7966L19.2983 19.7635L19.317 19.7303L19.3354 19.6971L19.3534 19.6635L19.371 19.6301L19.3882 19.5964L19.4051 19.5627L19.4216 19.5288L19.4377 19.4947L19.4534 19.4607L19.4686 19.4266L19.4835 19.3924L19.4981 19.358L19.5122 19.3237L19.526 19.2891L19.5393 19.2547L19.5523 19.2199L19.5648 19.1855L19.577 19.1507L19.5889 19.1158L19.6002 19.0811L19.6113 19.0462L19.6219 19.0114L19.6322 18.9762L19.642 18.9415L19.6516 18.9062L19.6606 18.8715L19.6694 18.8363L19.6777 18.8011L19.6856 18.7661L19.6931 18.7312L19.7003 18.6959L19.7071 18.6609L19.7135 18.6256L19.7195 18.5907L19.7252 18.5557L19.7305 18.5206L19.7354 18.4855L19.7398 18.4504L19.744 18.4155L19.7478 18.3807L19.7511 18.3456L19.7542 18.3108L19.7568 18.2759L19.759 18.2411L19.761 18.2064L19.7625 18.1718L19.7636 18.1373L19.7644 18.1026L19.7649 18.0679L19.765 18.0336L19.7646 17.9993L19.764 17.9651L19.763 17.9309L19.7616 17.8966L19.7598 17.8629L19.7578 17.8285L19.7554 17.795L19.7526 17.7613L19.7494 17.7274L19.7459 17.6939L19.7422 17.6607L19.7379 17.627L19.7334 17.594L19.7286 17.5608L19.7234 17.5281L19.7178 17.4951L19.712 17.4623L19.7058 17.4298L19.6994 17.3974L19.6925 17.3649L19.6853 17.3328L19.6778 17.3007L19.67 17.2689L19.6619 17.2373L19.6534 17.2055L19.6447 17.1743L19.6356 17.1427L19.6262 17.1118L19.6166 17.0808L19.6066 17.0501L19.5962 17.0195L19.5856 16.9889L19.5748 16.9588L19.5636 16.9288L19.5521 16.8987L19.5403 16.8691L19.5282 16.8394L19.516 16.8103L19.5033 16.781L19.4905 16.7521L19.4773 16.7235L19.4638 16.6948L19.4502 16.6665L19.4362 16.6383L19.4219 16.6103L19.4074 16.5827L19.3926 16.5551L19.3777 16.5279L19.3624 16.5007L19.3468 16.4739L19.3311 16.4472L19.3151 16.4208L19.2988 16.3945L19.2823 16.3687L19.2656 16.3429L19.2486 16.3174L19.2314 16.292L19.2141 16.2671L19.1964 16.2422L19.1786 16.2176L19.1605 16.1933L19.1422 16.1692L19.1238 16.1454L19.105 16.1217L19.0861 16.0984L19.067 16.0753L19.0477 16.0524L19.0282 16.0298L19.0086 16.0075L18.9886 15.9854L18.9686 15.9635L18.9483 15.9419L18.9279 15.9206L18.9073 15.8995L18.8865 15.8787L18.8656 15.8582L18.8445 15.8379L18.8233 15.8179L18.8017 15.7981L18.7802 15.7787L18.7585 15.7594L18.7366 15.7405L18.7146 15.7218L18.6924 15.7035L18.6701 15.6853L18.6477 15.6675L18.6251 15.6499L18.6024 15.6325L18.5796 15.6155L18.5566 15.5987L18.5335 15.5823L18.5104 15.5661L18.4871 15.5501L18.4638 15.5345L18.4402 15.5191L18.4166 15.504L18.393 15.4892L18.369 15.4747L18.3452 15.4604L18.3213 15.4465L18.2972 15.4328L18.273 15.4194L18.2488 15.4063L18.2246 15.3934L18.2002 15.3808L18.1758 15.3686L18.1512 15.3565L18.1267 15.3448L18.1021 15.3335L18.0774 15.3223L18.0527 15.3114L18.0278 15.3007L18.0032 15.2905L17.9782 15.2805L17.9533 15.2707L17.9284 15.2613L17.9034 15.2521L17.8785 15.2432L17.8534 15.2346L17.8284 15.2262L17.8034 15.2182L17.7783 15.2103L17.7532 15.2028L17.7282 15.1956L17.703 15.1887L17.678 15.182L17.6529 15.1756L17.6278 15.1695L17.6026 15.1636L17.5776 15.158L17.5525 15.1527L17.5274 15.1477L17.5025 15.1429L17.4775 15.1384L17.4524 15.1342L17.4276 15.1303L17.4025 15.1266L17.3778 15.1231L17.3528 15.1199L17.328 15.1171L17.3034 15.1144L17.2786 15.1121L17.2539 15.1099L17.2293 15.1081L17.2047 15.1065L17.1802 15.1051L17.1557 15.1041L17.1314 15.1033L17.107 15.1027L17.0828 15.1023L17.0586 15.1023L17.0345 15.1025L17.0104 15.1029L16.9865 15.1035L16.9626 15.1045L16.9389 15.1056L16.915 15.1071L16.8915 15.1087L16.868 15.1105L16.8446 15.1127L16.8213 15.115L16.7979 15.1175L16.7749 15.1203L16.7518 15.1234L16.729 15.1267L16.7061 15.1302L16.6834 15.1339L16.6608 15.1378L16.6385 15.1419L16.616 15.1463L16.5938 15.1509L16.5717 15.1557L16.5498 15.1607Z" fill="#475569"/>
</svg>
