<svg width="24" height="25" viewBox="0 0 24 25" fill="none" xmlns="http://www.w3.org/2000/svg">
<path d="M10.486 16.9336C10.3547 16.9339 10.2247 16.9082 10.1034 16.8581C9.98204 16.808 9.87181 16.7344 9.77899 16.6416L5.53699 12.3986C5.44141 12.3064 5.36516 12.1962 5.31266 12.0742C5.26017 11.9522 5.23249 11.821 5.23125 11.6882C5.23 11.5555 5.25521 11.4238 5.3054 11.3008C5.3556 11.1779 5.42977 11.0662 5.52359 10.9723C5.61742 10.8783 5.72902 10.804 5.85188 10.7536C5.97474 10.7032 6.1064 10.6778 6.23918 10.6789C6.37196 10.68 6.50319 10.7074 6.62523 10.7598C6.74727 10.8121 6.85767 10.8882 6.94999 10.9836L10.485 14.5186L16.85 8.15563C17.0375 7.96799 17.2919 7.86252 17.5571 7.86243C17.8224 7.86233 18.0768 7.96762 18.2645 8.15513C18.4521 8.34264 18.5576 8.59701 18.5577 8.86228C18.5578 9.12755 18.4525 9.38199 18.265 9.56963L11.193 16.6416C11.1002 16.7344 10.9899 16.808 10.8686 16.8581C10.7473 16.9082 10.6173 16.9339 10.486 16.9336Z" fill="#15803D"/>
</svg>
